<svg width="93" height="50" viewBox="0 0 93 50" fill="none" xmlns="http://www.w3.org/2000/svg">
<g clip-path="url(#clip0_1_891)">
<path fill-rule="evenodd" clip-rule="evenodd" d="M51.8903 3.6195L72.7812 3.6195C73.4442 3.6195 74.0801 3.88289 74.5489 4.35174L94.5697 24.3726L93.8626 25.0797L73.8418 5.05884C73.5605 4.77754 73.179 4.6195 72.7812 4.6195H51.8903L51.8903 3.6195Z" fill="url(#paint0_linear_1_891)"/>
<path fill-rule="evenodd" clip-rule="evenodd" d="M52.5974 2.91235L73.4883 2.91235C74.1513 2.91235 74.7872 3.17574 75.256 3.64458L95.2768 23.6654L94.5697 24.3725L74.5489 4.35169C74.2676 4.07038 73.8861 3.91235 73.4883 3.91235H52.5974L52.5974 2.91235Z" fill="url(#paint1_linear_1_891)"/>
<path d="M50.8296 1.64458C49.6581 2.81615 49.6581 4.71565 50.8296 5.88722C52.0012 7.05879 53.9007 7.05879 55.0723 5.88722C56.2438 4.71565 56.2438 2.81615 55.0723 1.64458C53.9007 0.473007 52.0012 0.473006 50.8296 1.64458Z" fill="url(#paint2_angular_1_891)"/>
<path fill-rule="evenodd" clip-rule="evenodd" d="M51.5367 5.18011C50.7557 4.39906 50.7557 3.13273 51.5367 2.35169C52.3178 1.57064 53.5841 1.57064 54.3652 2.35169C55.1462 3.13273 55.1462 4.39906 54.3652 5.18011C53.5841 5.96116 52.3178 5.96116 51.5367 5.18011ZM50.8296 5.88722C49.6581 4.71565 49.6581 2.81615 50.8296 1.64458C52.0012 0.473006 53.9007 0.473007 55.0723 1.64458C56.2438 2.81615 56.2438 4.71565 55.0723 5.88722C53.9007 7.05879 52.0012 7.05879 50.8296 5.88722Z" fill="url(#paint3_linear_1_891)" fill-opacity="0.2"/>
<ellipse opacity="0.9" cx="52.5974" cy="3.41233" rx="3" ry="0.7" transform="rotate(135 52.5974 3.41233)" fill="url(#paint4_radial_1_891)"/>
<ellipse opacity="0.3" cx="52.5974" cy="3.41235" rx="3" ry="3.5" transform="rotate(135 52.5974 3.41235)" fill="url(#paint5_radial_1_891)"/>
<ellipse opacity="0.9" cx="77.1451" cy="6.2408" rx="5" ry="0.5" transform="rotate(-135 77.1451 6.2408)" fill="url(#paint6_radial_1_891)"/>
<ellipse opacity="0.3" cx="77.1451" cy="6.2408" rx="5" ry="2.5" transform="rotate(-135 77.1451 6.2408)" fill="url(#paint7_radial_1_891)"/>
<ellipse opacity="0.9" cx="61.8357" cy="3.76587" rx="5" ry="0.5" transform="rotate(180 61.8357 3.76587)" fill="url(#paint8_radial_1_891)"/>
<ellipse opacity="0.3" cx="61.8357" cy="3.76587" rx="5" ry="2.5" transform="rotate(180 61.8357 3.76587)" fill="url(#paint9_radial_1_891)"/>
<g opacity="0.15" filter="url(#filter0_f_1_891)">
<path fill-rule="evenodd" clip-rule="evenodd" d="M51.8903 7.6195L72.7812 7.6195C73.4442 7.6195 74.0801 7.88289 74.5489 8.35174L94.5697 28.3726L93.8626 29.0797L73.8418 9.05884C73.5605 8.77754 73.179 8.6195 72.7812 8.6195H51.8903L51.8903 7.6195Z" fill="url(#paint10_linear_1_891)"/>
<path fill-rule="evenodd" clip-rule="evenodd" d="M52.5974 6.91235L73.4883 6.91235C74.1513 6.91235 74.7872 7.17574 75.256 7.64458L95.2768 27.6654L94.5697 28.3725L74.5489 8.35169C74.2676 8.07038 73.8861 7.91235 73.4883 7.91235H52.5974L52.5974 6.91235Z" fill="url(#paint11_linear_1_891)"/>
<path d="M50.8296 5.64458C49.6581 6.81615 49.6581 8.71565 50.8296 9.88722C52.0012 11.0588 53.9007 11.0588 55.0723 9.88722C56.2438 8.71565 56.2438 6.81615 55.0723 5.64458C53.9007 4.47301 52.0012 4.47301 50.8296 5.64458Z" fill="url(#paint12_angular_1_891)"/>
<path fill-rule="evenodd" clip-rule="evenodd" d="M51.5367 9.18011C50.7557 8.39906 50.7557 7.13273 51.5367 6.35169C52.3178 5.57064 53.5841 5.57064 54.3652 6.35169C55.1462 7.13273 55.1462 8.39906 54.3652 9.18011C53.5841 9.96116 52.3178 9.96116 51.5367 9.18011ZM50.8296 9.88722C49.6581 8.71565 49.6581 6.81615 50.8296 5.64458C52.0012 4.47301 53.9007 4.47301 55.0723 5.64458C56.2438 6.81615 56.2438 8.71565 55.0723 9.88722C53.9007 11.0588 52.0012 11.0588 50.8296 9.88722Z" fill="url(#paint13_linear_1_891)" fill-opacity="0.2"/>
<ellipse opacity="0.9" cx="52.5974" cy="7.41233" rx="3" ry="0.7" transform="rotate(135 52.5974 7.41233)" fill="url(#paint14_radial_1_891)"/>
<ellipse opacity="0.3" cx="52.5974" cy="7.41235" rx="3" ry="3.5" transform="rotate(135 52.5974 7.41235)" fill="url(#paint15_radial_1_891)"/>
<ellipse opacity="0.9" cx="77.1451" cy="10.2408" rx="5" ry="0.5" transform="rotate(-135 77.1451 10.2408)" fill="url(#paint16_radial_1_891)"/>
<ellipse opacity="0.3" cx="77.1451" cy="10.2408" rx="5" ry="2.5" transform="rotate(-135 77.1451 10.2408)" fill="url(#paint17_radial_1_891)"/>
<ellipse opacity="0.9" cx="61.8357" cy="7.76587" rx="5" ry="0.5" transform="rotate(180 61.8357 7.76587)" fill="url(#paint18_radial_1_891)"/>
<ellipse opacity="0.3" cx="61.8357" cy="7.76587" rx="5" ry="2.5" transform="rotate(180 61.8357 7.76587)" fill="url(#paint19_radial_1_891)"/>
</g>
<path fill-rule="evenodd" clip-rule="evenodd" d="M2.997 46.3805L83.8879 46.3805C84.5509 46.3805 85.1868 46.1171 85.6556 45.6482L95.6765 35.6274L94.9693 34.9203L84.9485 44.9411C84.6672 45.2224 84.2857 45.3805 83.8879 45.3805L2.997 45.3805L2.997 46.3805Z" fill="url(#paint20_linear_1_891)"/>
<path fill-rule="evenodd" clip-rule="evenodd" d="M3.70408 47.0876L84.595 47.0876C85.258 47.0876 85.8939 46.8242 86.3627 46.3554L96.3835 36.3345L95.6764 35.6274L85.6556 45.6482C85.3743 45.9296 84.9928 46.0876 84.595 46.0876L3.70408 46.0876L3.70408 47.0876Z" fill="url(#paint21_linear_1_891)"/>
<path d="M1.93679 48.3554C0.765217 47.1838 0.765217 45.2843 1.93679 44.1127C3.10836 42.9412 5.00786 42.9412 6.17943 44.1127C7.351 45.2843 7.351 47.1838 6.17943 48.3554C5.00786 49.527 3.10836 49.527 1.93679 48.3554Z" fill="url(#paint22_angular_1_891)"/>
<path fill-rule="evenodd" clip-rule="evenodd" d="M2.6439 44.8199C1.86285 45.6009 1.86285 46.8672 2.6439 47.6483C3.42495 48.4293 4.69128 48.4293 5.47232 47.6483C6.25337 46.8672 6.25337 45.6009 5.47232 44.8199C4.69128 44.0388 3.42495 44.0388 2.6439 44.8199ZM1.93679 44.1127C0.765217 45.2843 0.765217 47.1838 1.93679 48.3554C3.10836 49.527 5.00786 49.527 6.17943 48.3554C7.351 47.1838 7.351 45.2843 6.17943 44.1127C5.00786 42.9412 3.10836 42.9412 1.93679 44.1127Z" fill="url(#paint23_linear_1_891)" fill-opacity="0.2"/>
<ellipse opacity="0.9" cx="3" cy="0.7" rx="3" ry="0.7" transform="matrix(-0.707107 -0.707107 -0.707107 0.707107 6.32085 48.214)" fill="url(#paint24_radial_1_891)"/>
<ellipse opacity="0.3" cx="3" cy="3.5" rx="3" ry="3.5" transform="matrix(-0.707107 -0.707107 -0.707107 0.707107 8.30075 46.2341)" fill="url(#paint25_radial_1_891)"/>
<ellipse opacity="0.9" cx="5" cy="0.5" rx="5" ry="0.5" transform="matrix(-0.707107 0.707107 0.707107 0.707107 91.4338 39.8701)" fill="url(#paint26_radial_1_891)"/>
<ellipse opacity="0.3" cx="5" cy="2.5" rx="5" ry="2.5" transform="matrix(-0.707107 0.707107 0.707107 0.707107 90.0196 38.4559)" fill="url(#paint27_radial_1_891)"/>
<ellipse opacity="0.9" cx="15.5288" cy="0.5" rx="15.5288" ry="0.5" transform="matrix(-1 0 0 1 41 45.7341)" fill="url(#paint28_radial_1_891)"/>
<ellipse opacity="0.3" cx="15.5288" cy="2.5" rx="15.5288" ry="2.5" transform="matrix(-1 0 0 1 41 43.7341)" fill="url(#paint29_radial_1_891)"/>
<g opacity="0.15" filter="url(#filter1_f_1_891)">
<path fill-rule="evenodd" clip-rule="evenodd" d="M12.997 42.3805L93.8879 42.3805C94.5509 42.3805 95.1868 42.1171 95.6556 41.6482L105.676 31.6274L104.969 30.9203L94.9485 40.9411C94.6672 41.2224 94.2857 41.3805 93.8879 41.3805L12.997 41.3805L12.997 42.3805Z" fill="url(#paint30_linear_1_891)"/>
<path fill-rule="evenodd" clip-rule="evenodd" d="M13.7041 43.0876L94.595 43.0876C95.258 43.0876 95.8939 42.8242 96.3627 42.3554L106.384 32.3345L105.676 31.6274L95.6556 41.6482C95.3743 41.9296 94.9928 42.0876 94.595 42.0876L13.7041 42.0876L13.7041 43.0876Z" fill="url(#paint31_linear_1_891)"/>
<path d="M11.9368 44.3554C10.7652 43.1838 10.7652 41.2843 11.9368 40.1127C13.1084 38.9412 15.0079 38.9412 16.1794 40.1127C17.351 41.2843 17.351 43.1838 16.1794 44.3554C15.0079 45.527 13.1084 45.527 11.9368 44.3554Z" fill="url(#paint32_angular_1_891)"/>
<path fill-rule="evenodd" clip-rule="evenodd" d="M12.6439 40.8199C11.8628 41.6009 11.8628 42.8672 12.6439 43.6483C13.4249 44.4293 14.6913 44.4293 15.4723 43.6483C16.2534 42.8672 16.2534 41.6009 15.4723 40.8199C14.6913 40.0388 13.4249 40.0388 12.6439 40.8199ZM11.9368 40.1127C10.7652 41.2843 10.7652 43.1838 11.9368 44.3554C13.1084 45.527 15.0079 45.527 16.1794 44.3554C17.351 43.1838 17.351 41.2843 16.1794 40.1127C15.0079 38.9412 13.1084 38.9412 11.9368 40.1127Z" fill="url(#paint33_linear_1_891)" fill-opacity="0.2"/>
<ellipse opacity="0.9" cx="3" cy="0.7" rx="3" ry="0.7" transform="matrix(-0.707107 -0.707107 -0.707107 0.707107 16.3208 44.214)" fill="url(#paint34_radial_1_891)"/>
<ellipse opacity="0.3" cx="3" cy="3.5" rx="3" ry="3.5" transform="matrix(-0.707107 -0.707107 -0.707107 0.707107 18.3007 42.2341)" fill="url(#paint35_radial_1_891)"/>
<ellipse opacity="0.3" cx="5" cy="2.5" rx="5" ry="2.5" transform="matrix(-0.707107 0.707107 0.707107 0.707107 100.02 34.4559)" fill="url(#paint36_radial_1_891)"/>
<ellipse opacity="0.9" cx="15.5288" cy="0.5" rx="15.5288" ry="0.5" transform="matrix(-1 0 0 1 51 41.7341)" fill="url(#paint37_radial_1_891)"/>
<ellipse opacity="0.3" cx="15.5288" cy="2.5" rx="15.5288" ry="2.5" transform="matrix(-1 0 0 1 51 39.7341)" fill="url(#paint38_radial_1_891)"/>
</g>
</g>
<defs>
<filter id="filter0_f_1_891" x="48.3377" y="3.15268" width="47.9391" height="26.927" filterUnits="userSpaceOnUse" color-interpolation-filters="sRGB">
<feFlood flood-opacity="0" result="BackgroundImageFix"/>
<feBlend mode="normal" in="SourceGraphic" in2="BackgroundImageFix" result="shape"/>
<feGaussianBlur stdDeviation="0.5" result="effect1_foregroundBlur_1_891"/>
</filter>
<filter id="filter1_f_1_891" x="9.44489" y="29.9203" width="97.9387" height="16.927" filterUnits="userSpaceOnUse" color-interpolation-filters="sRGB">
<feFlood flood-opacity="0" result="BackgroundImageFix"/>
<feBlend mode="normal" in="SourceGraphic" in2="BackgroundImageFix" result="shape"/>
<feGaussianBlur stdDeviation="0.5" result="effect1_foregroundBlur_1_891"/>
</filter>
<linearGradient id="paint0_linear_1_891" x1="82.0949" y1="11.8977" x2="29.769" y2="11.8977" gradientUnits="userSpaceOnUse">
<stop stop-color="#3D3D3F"/>
<stop offset="1" stop-color="#828389"/>
</linearGradient>
<linearGradient id="paint1_linear_1_891" x1="82.802" y1="11.1905" x2="30.4761" y2="11.1905" gradientUnits="userSpaceOnUse">
<stop stop-color="#515056"/>
<stop offset="0.479164" stop-color="#C6C7CC"/>
</linearGradient>
<radialGradient id="paint2_angular_1_891" cx="0" cy="0" r="1" gradientUnits="userSpaceOnUse" gradientTransform="translate(52.951 3.7659) rotate(135) scale(3)">
<stop stop-color="#3C4C64"/>
<stop offset="1" stop-color="#99ADCF"/>
</radialGradient>
<linearGradient id="paint3_linear_1_891" x1="55.0723" y1="1.64458" x2="50.8296" y2="5.88722" gradientUnits="userSpaceOnUse">
<stop stop-color="white"/>
<stop offset="1"/>
</linearGradient>
<radialGradient id="paint4_radial_1_891" cx="0" cy="0" r="1" gradientUnits="userSpaceOnUse" gradientTransform="translate(52.5974 3.41233) rotate(90) scale(0.7 3)">
<stop stop-color="white"/>
<stop offset="1" stop-color="white" stop-opacity="0"/>
</radialGradient>
<radialGradient id="paint5_radial_1_891" cx="0" cy="0" r="1" gradientUnits="userSpaceOnUse" gradientTransform="translate(52.5974 3.41235) rotate(90) scale(3.5 3)">
<stop stop-color="white"/>
<stop offset="1" stop-color="white" stop-opacity="0"/>
</radialGradient>
<radialGradient id="paint6_radial_1_891" cx="0" cy="0" r="1" gradientUnits="userSpaceOnUse" gradientTransform="translate(77.1451 6.2408) rotate(90) scale(0.5 5)">
<stop stop-color="white"/>
<stop offset="1" stop-color="white" stop-opacity="0"/>
</radialGradient>
<radialGradient id="paint7_radial_1_891" cx="0" cy="0" r="1" gradientUnits="userSpaceOnUse" gradientTransform="translate(77.1451 6.2408) rotate(90) scale(2.5 5)">
<stop stop-color="white"/>
<stop offset="1" stop-color="white" stop-opacity="0"/>
</radialGradient>
<radialGradient id="paint8_radial_1_891" cx="0" cy="0" r="1" gradientUnits="userSpaceOnUse" gradientTransform="translate(61.8357 3.76587) rotate(90) scale(0.5 5)">
<stop stop-color="white"/>
<stop offset="1" stop-color="white" stop-opacity="0"/>
</radialGradient>
<radialGradient id="paint9_radial_1_891" cx="0" cy="0" r="1" gradientUnits="userSpaceOnUse" gradientTransform="translate(61.8357 3.76587) rotate(90) scale(2.5 5)">
<stop stop-color="white"/>
<stop offset="1" stop-color="white" stop-opacity="0"/>
</radialGradient>
<linearGradient id="paint10_linear_1_891" x1="82.0949" y1="15.8977" x2="29.769" y2="15.8977" gradientUnits="userSpaceOnUse">
<stop stop-color="#3D3D3F"/>
<stop offset="1" stop-color="#828389"/>
</linearGradient>
<linearGradient id="paint11_linear_1_891" x1="82.802" y1="15.1905" x2="30.4761" y2="15.1905" gradientUnits="userSpaceOnUse">
<stop stop-color="#515056"/>
<stop offset="0.479164" stop-color="#C6C7CC"/>
</linearGradient>
<radialGradient id="paint12_angular_1_891" cx="0" cy="0" r="1" gradientUnits="userSpaceOnUse" gradientTransform="translate(52.951 7.7659) rotate(135) scale(3)">
<stop stop-color="#3C4C64"/>
<stop offset="1" stop-color="#99ADCF"/>
</radialGradient>
<linearGradient id="paint13_linear_1_891" x1="55.0723" y1="5.64458" x2="50.8296" y2="9.88722" gradientUnits="userSpaceOnUse">
<stop stop-color="white"/>
<stop offset="1"/>
</linearGradient>
<radialGradient id="paint14_radial_1_891" cx="0" cy="0" r="1" gradientUnits="userSpaceOnUse" gradientTransform="translate(52.5974 7.41233) rotate(90) scale(0.7 3)">
<stop stop-color="white"/>
<stop offset="1" stop-color="white" stop-opacity="0"/>
</radialGradient>
<radialGradient id="paint15_radial_1_891" cx="0" cy="0" r="1" gradientUnits="userSpaceOnUse" gradientTransform="translate(52.5974 7.41235) rotate(90) scale(3.5 3)">
<stop stop-color="white"/>
<stop offset="1" stop-color="white" stop-opacity="0"/>
</radialGradient>
<radialGradient id="paint16_radial_1_891" cx="0" cy="0" r="1" gradientUnits="userSpaceOnUse" gradientTransform="translate(77.1451 10.2408) rotate(90) scale(0.5 5)">
<stop stop-color="white"/>
<stop offset="1" stop-color="white" stop-opacity="0"/>
</radialGradient>
<radialGradient id="paint17_radial_1_891" cx="0" cy="0" r="1" gradientUnits="userSpaceOnUse" gradientTransform="translate(77.1451 10.2408) rotate(90) scale(2.5 5)">
<stop stop-color="white"/>
<stop offset="1" stop-color="white" stop-opacity="0"/>
</radialGradient>
<radialGradient id="paint18_radial_1_891" cx="0" cy="0" r="1" gradientUnits="userSpaceOnUse" gradientTransform="translate(61.8357 7.76587) rotate(90) scale(0.5 5)">
<stop stop-color="white"/>
<stop offset="1" stop-color="white" stop-opacity="0"/>
</radialGradient>
<radialGradient id="paint19_radial_1_891" cx="0" cy="0" r="1" gradientUnits="userSpaceOnUse" gradientTransform="translate(61.8357 7.76587) rotate(90) scale(2.5 5)">
<stop stop-color="white"/>
<stop offset="1" stop-color="white" stop-opacity="0"/>
</radialGradient>
<linearGradient id="paint20_linear_1_891" x1="93.2016" y1="38.1023" x2="40.8757" y2="38.1023" gradientUnits="userSpaceOnUse">
<stop stop-color="#3D3D3F"/>
<stop offset="1" stop-color="#828389"/>
</linearGradient>
<linearGradient id="paint21_linear_1_891" x1="93.9087" y1="38.8094" x2="41.5828" y2="38.8094" gradientUnits="userSpaceOnUse">
<stop stop-color="#515056"/>
<stop offset="0.479164" stop-color="#C6C7CC"/>
</linearGradient>
<radialGradient id="paint22_angular_1_891" cx="0" cy="0" r="1" gradientUnits="userSpaceOnUse" gradientTransform="translate(4.05811 46.2341) rotate(-135) scale(3)">
<stop stop-color="#3C4C64"/>
<stop offset="1" stop-color="#99ADCF"/>
</radialGradient>
<linearGradient id="paint23_linear_1_891" x1="6.17943" y1="48.3554" x2="1.93679" y2="44.1127" gradientUnits="userSpaceOnUse">
<stop stop-color="white"/>
<stop offset="1"/>
</linearGradient>
<radialGradient id="paint24_radial_1_891" cx="0" cy="0" r="1" gradientUnits="userSpaceOnUse" gradientTransform="translate(3 0.7) rotate(90) scale(0.7 3)">
<stop stop-color="white"/>
<stop offset="1" stop-color="white" stop-opacity="0"/>
</radialGradient>
<radialGradient id="paint25_radial_1_891" cx="0" cy="0" r="1" gradientUnits="userSpaceOnUse" gradientTransform="translate(3 3.5) rotate(90) scale(3.5 3)">
<stop stop-color="white"/>
<stop offset="1" stop-color="white" stop-opacity="0"/>
</radialGradient>
<radialGradient id="paint26_radial_1_891" cx="0" cy="0" r="1" gradientUnits="userSpaceOnUse" gradientTransform="translate(5 0.5) rotate(90) scale(0.5 5)">
<stop stop-color="white"/>
<stop offset="1" stop-color="white" stop-opacity="0"/>
</radialGradient>
<radialGradient id="paint27_radial_1_891" cx="0" cy="0" r="1" gradientUnits="userSpaceOnUse" gradientTransform="translate(5 2.5) rotate(90) scale(2.5 5)">
<stop stop-color="white"/>
<stop offset="1" stop-color="white" stop-opacity="0"/>
</radialGradient>
<radialGradient id="paint28_radial_1_891" cx="0" cy="0" r="1" gradientUnits="userSpaceOnUse" gradientTransform="translate(15.5288 0.5) rotate(90) scale(0.5 15.5288)">
<stop stop-color="white"/>
<stop offset="1" stop-color="white" stop-opacity="0"/>
</radialGradient>
<radialGradient id="paint29_radial_1_891" cx="0" cy="0" r="1" gradientUnits="userSpaceOnUse" gradientTransform="translate(15.5288 2.5) rotate(90) scale(2.5 15.5288)">
<stop stop-color="white"/>
<stop offset="1" stop-color="white" stop-opacity="0"/>
</radialGradient>
<linearGradient id="paint30_linear_1_891" x1="103.202" y1="34.1023" x2="50.8757" y2="34.1023" gradientUnits="userSpaceOnUse">
<stop stop-color="#3D3D3F"/>
<stop offset="1" stop-color="#828389"/>
</linearGradient>
<linearGradient id="paint31_linear_1_891" x1="103.909" y1="34.8094" x2="51.5828" y2="34.8094" gradientUnits="userSpaceOnUse">
<stop stop-color="#515056"/>
<stop offset="0.479164" stop-color="#C6C7CC"/>
</linearGradient>
<radialGradient id="paint32_angular_1_891" cx="0" cy="0" r="1" gradientUnits="userSpaceOnUse" gradientTransform="translate(14.0581 42.2341) rotate(-135) scale(3)">
<stop stop-color="#3C4C64"/>
<stop offset="1" stop-color="#99ADCF"/>
</radialGradient>
<linearGradient id="paint33_linear_1_891" x1="16.1794" y1="44.3554" x2="11.9368" y2="40.1127" gradientUnits="userSpaceOnUse">
<stop stop-color="white"/>
<stop offset="1"/>
</linearGradient>
<radialGradient id="paint34_radial_1_891" cx="0" cy="0" r="1" gradientUnits="userSpaceOnUse" gradientTransform="translate(3 0.7) rotate(90) scale(0.7 3)">
<stop stop-color="white"/>
<stop offset="1" stop-color="white" stop-opacity="0"/>
</radialGradient>
<radialGradient id="paint35_radial_1_891" cx="0" cy="0" r="1" gradientUnits="userSpaceOnUse" gradientTransform="translate(3 3.5) rotate(90) scale(3.5 3)">
<stop stop-color="white"/>
<stop offset="1" stop-color="white" stop-opacity="0"/>
</radialGradient>
<radialGradient id="paint36_radial_1_891" cx="0" cy="0" r="1" gradientUnits="userSpaceOnUse" gradientTransform="translate(5 2.5) rotate(90) scale(2.5 5)">
<stop stop-color="white"/>
<stop offset="1" stop-color="white" stop-opacity="0"/>
</radialGradient>
<radialGradient id="paint37_radial_1_891" cx="0" cy="0" r="1" gradientUnits="userSpaceOnUse" gradientTransform="translate(15.5288 0.5) rotate(90) scale(0.5 15.5288)">
<stop stop-color="white"/>
<stop offset="1" stop-color="white" stop-opacity="0"/>
</radialGradient>
<radialGradient id="paint38_radial_1_891" cx="0" cy="0" r="1" gradientUnits="userSpaceOnUse" gradientTransform="translate(15.5288 2.5) rotate(90) scale(2.5 15.5288)">
<stop stop-color="white"/>
<stop offset="1" stop-color="white" stop-opacity="0"/>
</radialGradient>
<clipPath id="clip0_1_891">
<rect width="93" height="50" fill="white"/>
</clipPath>
</defs>
</svg>
