<svg width="93" height="50" viewBox="0 0 93 50" fill="none" xmlns="http://www.w3.org/2000/svg">
<g clip-path="url(#clip0_1_954)">
<path fill-rule="evenodd" clip-rule="evenodd" d="M41.1096 3.6195L20.2188 3.6195C19.5557 3.6195 18.9199 3.88289 18.451 4.35174L-1.56981 24.3726L-0.862698 25.0797L19.1581 5.05884C19.4394 4.77754 19.821 4.6195 20.2188 4.6195H41.1096L41.1096 3.6195Z" fill="url(#paint0_linear_1_954)"/>
<path fill-rule="evenodd" clip-rule="evenodd" d="M40.4025 2.91235L19.5117 2.91235C18.8486 2.91235 18.2127 3.17574 17.7439 3.64458L-2.27691 23.6654L-1.5698 24.3725L18.451 4.35169C18.7323 4.07038 19.1138 3.91235 19.5117 3.91235H40.4025L40.4025 2.91235Z" fill="url(#paint1_linear_1_954)"/>
<path d="M42.1703 1.64458C43.3419 2.81615 43.3419 4.71565 42.1703 5.88722C40.9987 7.05879 39.0992 7.05879 37.9277 5.88722C36.7561 4.71565 36.7561 2.81615 37.9277 1.64458C39.0992 0.473007 40.9987 0.473006 42.1703 1.64458Z" fill="url(#paint2_angular_1_954)"/>
<path fill-rule="evenodd" clip-rule="evenodd" d="M41.4632 5.18011C42.2442 4.39906 42.2442 3.13273 41.4632 2.35169C40.6821 1.57064 39.4158 1.57064 38.6348 2.35169C37.8537 3.13273 37.8537 4.39906 38.6348 5.18011C39.4158 5.96116 40.6821 5.96116 41.4632 5.18011ZM42.1703 5.88722C43.3419 4.71565 43.3419 2.81615 42.1703 1.64458C40.9987 0.473006 39.0992 0.473007 37.9277 1.64458C36.7561 2.81615 36.7561 4.71565 37.9277 5.88722C39.0992 7.05879 40.9987 7.05879 42.1703 5.88722Z" fill="url(#paint3_linear_1_954)" fill-opacity="0.2"/>
<ellipse opacity="0.9" cx="3" cy="0.7" rx="3" ry="0.7" transform="matrix(0.707107 0.707107 0.707107 -0.707107 37.7863 1.78598)" fill="url(#paint4_radial_1_954)"/>
<ellipse opacity="0.3" cx="3" cy="3.5" rx="3" ry="3.5" transform="matrix(0.707107 0.707107 0.707107 -0.707107 35.8064 3.7659)" fill="url(#paint5_radial_1_954)"/>
<ellipse opacity="0.9" cx="5" cy="0.5" rx="5" ry="0.5" transform="matrix(0.707107 -0.707107 -0.707107 -0.707107 12.6728 10.1299)" fill="url(#paint6_radial_1_954)"/>
<ellipse opacity="0.3" cx="5" cy="2.5" rx="5" ry="2.5" transform="matrix(0.707107 -0.707107 -0.707107 -0.707107 14.0871 11.5441)" fill="url(#paint7_radial_1_954)"/>
<ellipse opacity="0.9" cx="5" cy="0.5" rx="5" ry="0.5" transform="matrix(1 0 0 -1 26.1642 4.26587)" fill="url(#paint8_radial_1_954)"/>
<ellipse opacity="0.3" cx="5" cy="2.5" rx="5" ry="2.5" transform="matrix(1 0 0 -1 26.1642 6.26587)" fill="url(#paint9_radial_1_954)"/>
<g opacity="0.15" filter="url(#filter0_f_1_954)">
<path fill-rule="evenodd" clip-rule="evenodd" d="M41.1096 7.6195L20.2188 7.6195C19.5557 7.6195 18.9199 7.88289 18.451 8.35174L-1.56981 28.3726L-0.862698 29.0797L19.1581 9.05884C19.4394 8.77754 19.821 8.6195 20.2188 8.6195H41.1096L41.1096 7.6195Z" fill="url(#paint10_linear_1_954)"/>
<path fill-rule="evenodd" clip-rule="evenodd" d="M40.4025 6.91235L19.5117 6.91235C18.8486 6.91235 18.2127 7.17574 17.7439 7.64458L-2.27691 27.6654L-1.5698 28.3725L18.451 8.35169C18.7323 8.07038 19.1138 7.91235 19.5117 7.91235H40.4025L40.4025 6.91235Z" fill="url(#paint11_linear_1_954)"/>
<path d="M42.1703 5.64458C43.3419 6.81615 43.3419 8.71565 42.1703 9.88722C40.9987 11.0588 39.0992 11.0588 37.9277 9.88722C36.7561 8.71565 36.7561 6.81615 37.9277 5.64458C39.0992 4.47301 40.9987 4.47301 42.1703 5.64458Z" fill="url(#paint12_angular_1_954)"/>
<path fill-rule="evenodd" clip-rule="evenodd" d="M41.4632 9.18011C42.2442 8.39906 42.2442 7.13273 41.4632 6.35169C40.6821 5.57064 39.4158 5.57064 38.6348 6.35169C37.8537 7.13273 37.8537 8.39906 38.6348 9.18011C39.4158 9.96116 40.6821 9.96116 41.4632 9.18011ZM42.1703 9.88722C43.3419 8.71565 43.3419 6.81615 42.1703 5.64458C40.9987 4.47301 39.0992 4.47301 37.9277 5.64458C36.7561 6.81615 36.7561 8.71565 37.9277 9.88722C39.0992 11.0588 40.9987 11.0588 42.1703 9.88722Z" fill="url(#paint13_linear_1_954)" fill-opacity="0.2"/>
<ellipse opacity="0.9" cx="3" cy="0.7" rx="3" ry="0.7" transform="matrix(0.707107 0.707107 0.707107 -0.707107 37.7863 5.78598)" fill="url(#paint14_radial_1_954)"/>
<ellipse opacity="0.3" cx="3" cy="3.5" rx="3" ry="3.5" transform="matrix(0.707107 0.707107 0.707107 -0.707107 35.8064 7.7659)" fill="url(#paint15_radial_1_954)"/>
<ellipse opacity="0.9" cx="5" cy="0.5" rx="5" ry="0.5" transform="matrix(0.707107 -0.707107 -0.707107 -0.707107 12.6728 14.1299)" fill="url(#paint16_radial_1_954)"/>
<ellipse opacity="0.3" cx="5" cy="2.5" rx="5" ry="2.5" transform="matrix(0.707107 -0.707107 -0.707107 -0.707107 14.0871 15.5441)" fill="url(#paint17_radial_1_954)"/>
<ellipse opacity="0.9" cx="5" cy="0.5" rx="5" ry="0.5" transform="matrix(1 0 0 -1 26.1642 8.26587)" fill="url(#paint18_radial_1_954)"/>
<ellipse opacity="0.3" cx="5" cy="2.5" rx="5" ry="2.5" transform="matrix(1 0 0 -1 26.1642 10.2659)" fill="url(#paint19_radial_1_954)"/>
</g>
<path fill-rule="evenodd" clip-rule="evenodd" d="M90.0029 46.3805L9.11207 46.3805C8.44903 46.3805 7.81314 46.1171 7.3443 45.6482L-2.67651 35.6274L-1.96941 34.9203L8.05141 44.9411C8.33271 45.2224 8.71424 45.3805 9.11207 45.3805L90.0029 45.3805L90.0029 46.3805Z" fill="url(#paint20_linear_1_954)"/>
<path fill-rule="evenodd" clip-rule="evenodd" d="M89.2959 47.0876L8.40498 47.0876C7.74194 47.0876 7.10606 46.8242 6.63722 46.3554L-3.3836 36.3345L-2.67649 35.6274L7.34432 45.6482C7.62563 45.9296 8.00716 46.0876 8.40498 46.0876L89.2959 46.0876L89.2959 47.0876Z" fill="url(#paint21_linear_1_954)"/>
<path d="M91.0631 48.3554C92.2347 47.1838 92.2347 45.2843 91.0631 44.1127C89.8916 42.9412 87.9921 42.9412 86.8205 44.1127C85.6489 45.2843 85.6489 47.1838 86.8205 48.3554C87.9921 49.527 89.8916 49.527 91.0631 48.3554Z" fill="url(#paint22_angular_1_954)"/>
<path fill-rule="evenodd" clip-rule="evenodd" d="M90.356 44.8199C91.1371 45.6009 91.1371 46.8672 90.356 47.6483C89.575 48.4293 88.3087 48.4293 87.5276 47.6483C86.7466 46.8672 86.7466 45.6009 87.5276 44.8199C88.3087 44.0388 89.575 44.0388 90.356 44.8199ZM91.0631 44.1127C92.2347 45.2843 92.2347 47.1838 91.0631 48.3554C89.8916 49.527 87.9921 49.527 86.8205 48.3554C85.6489 47.1838 85.6489 45.2843 86.8205 44.1127C87.9921 42.9412 89.8916 42.9412 91.0631 44.1127Z" fill="url(#paint23_linear_1_954)" fill-opacity="0.2"/>
<ellipse opacity="0.9" cx="89.2954" cy="46.5876" rx="3" ry="0.7" transform="rotate(-45 89.2954 46.5876)" fill="url(#paint24_radial_1_954)"/>
<ellipse opacity="0.3" cx="89.2954" cy="46.5876" rx="3" ry="3.5" transform="rotate(-45 89.2954 46.5876)" fill="url(#paint25_radial_1_954)"/>
<ellipse opacity="0.9" cx="4.74811" cy="43.7592" rx="5" ry="0.5" transform="rotate(45 4.74811 43.7592)" fill="url(#paint26_radial_1_954)"/>
<ellipse opacity="0.3" cx="4.74811" cy="43.7592" rx="5" ry="2.5" transform="rotate(45 4.74811 43.7592)" fill="url(#paint27_radial_1_954)"/>
<ellipse opacity="0.9" cx="67.5288" cy="46.2341" rx="15.5288" ry="0.5" fill="url(#paint28_radial_1_954)"/>
<ellipse opacity="0.3" cx="67.5288" cy="46.2341" rx="15.5288" ry="2.5" fill="url(#paint29_radial_1_954)"/>
<g opacity="0.15" filter="url(#filter1_f_1_954)">
<path fill-rule="evenodd" clip-rule="evenodd" d="M80.0029 42.3805L-0.887932 42.3805C-1.55097 42.3805 -2.18686 42.1171 -2.6557 41.6482L-12.6765 31.6274L-11.9694 30.9203L-1.94859 40.9411C-1.66729 41.2224 -1.28576 41.3805 -0.887932 41.3805L80.0029 41.3805L80.0029 42.3805Z" fill="url(#paint30_linear_1_954)"/>
<path fill-rule="evenodd" clip-rule="evenodd" d="M79.2959 43.0876L-1.59502 43.0876C-2.25806 43.0876 -2.89394 42.8242 -3.36278 42.3554L-13.3836 32.3345L-12.6765 31.6274L-2.65568 41.6482C-2.37437 41.9296 -1.99284 42.0876 -1.59502 42.0876L79.2959 42.0876L79.2959 43.0876Z" fill="url(#paint31_linear_1_954)"/>
<path d="M81.0632 44.3554C82.2347 43.1838 82.2347 41.2843 81.0632 40.1127C79.8916 38.9412 77.9921 38.9412 76.8205 40.1127C75.6489 41.2843 75.6489 43.1838 76.8205 44.3554C77.9921 45.527 79.8916 45.527 81.0632 44.3554Z" fill="url(#paint32_angular_1_954)"/>
<path fill-rule="evenodd" clip-rule="evenodd" d="M80.3561 40.8199C81.1371 41.6009 81.1371 42.8672 80.3561 43.6483C79.575 44.4293 78.3087 44.4293 77.5276 43.6483C76.7466 42.8672 76.7466 41.6009 77.5276 40.8199C78.3087 40.0388 79.575 40.0388 80.3561 40.8199ZM81.0632 40.1127C82.2347 41.2843 82.2347 43.1838 81.0632 44.3554C79.8916 45.527 77.9921 45.527 76.8205 44.3554C75.6489 43.1838 75.6489 41.2843 76.8205 40.1127C77.9921 38.9412 79.8916 38.9412 81.0632 40.1127Z" fill="url(#paint33_linear_1_954)" fill-opacity="0.2"/>
<ellipse opacity="0.9" cx="79.2954" cy="42.5876" rx="3" ry="0.7" transform="rotate(-45 79.2954 42.5876)" fill="url(#paint34_radial_1_954)"/>
<ellipse opacity="0.3" cx="79.2954" cy="42.5876" rx="3" ry="3.5" transform="rotate(-45 79.2954 42.5876)" fill="url(#paint35_radial_1_954)"/>
<ellipse opacity="0.3" cx="-5.25189" cy="39.7592" rx="5" ry="2.5" transform="rotate(45 -5.25189 39.7592)" fill="url(#paint36_radial_1_954)"/>
<ellipse opacity="0.9" cx="57.5288" cy="42.2341" rx="15.5288" ry="0.5" fill="url(#paint37_radial_1_954)"/>
<ellipse opacity="0.3" cx="57.5288" cy="42.2341" rx="15.5288" ry="2.5" fill="url(#paint38_radial_1_954)"/>
</g>
</g>
<defs>
<filter id="filter0_f_1_954" x="-3.27691" y="3.15268" width="47.9391" height="26.927" filterUnits="userSpaceOnUse" color-interpolation-filters="sRGB">
<feFlood flood-opacity="0" result="BackgroundImageFix"/>
<feBlend mode="normal" in="SourceGraphic" in2="BackgroundImageFix" result="shape"/>
<feGaussianBlur stdDeviation="0.5" result="effect1_foregroundBlur_1_954"/>
</filter>
<filter id="filter1_f_1_954" x="-14.3836" y="29.9203" width="97.9387" height="16.927" filterUnits="userSpaceOnUse" color-interpolation-filters="sRGB">
<feFlood flood-opacity="0" result="BackgroundImageFix"/>
<feBlend mode="normal" in="SourceGraphic" in2="BackgroundImageFix" result="shape"/>
<feGaussianBlur stdDeviation="0.5" result="effect1_foregroundBlur_1_954"/>
</filter>
<linearGradient id="paint0_linear_1_954" x1="10.9051" y1="11.8977" x2="63.231" y2="11.8977" gradientUnits="userSpaceOnUse">
<stop stop-color="#3D3D3F"/>
<stop offset="1" stop-color="#828389"/>
</linearGradient>
<linearGradient id="paint1_linear_1_954" x1="10.198" y1="11.1905" x2="62.5239" y2="11.1905" gradientUnits="userSpaceOnUse">
<stop stop-color="#515056"/>
<stop offset="0.479164" stop-color="#C6C7CC"/>
</linearGradient>
<radialGradient id="paint2_angular_1_954" cx="0" cy="0" r="1" gradientUnits="userSpaceOnUse" gradientTransform="translate(40.049 3.7659) rotate(45) scale(3)">
<stop stop-color="#3C4C64"/>
<stop offset="1" stop-color="#99ADCF"/>
</radialGradient>
<linearGradient id="paint3_linear_1_954" x1="37.9277" y1="1.64458" x2="42.1703" y2="5.88722" gradientUnits="userSpaceOnUse">
<stop stop-color="white"/>
<stop offset="1"/>
</linearGradient>
<radialGradient id="paint4_radial_1_954" cx="0" cy="0" r="1" gradientUnits="userSpaceOnUse" gradientTransform="translate(3 0.7) rotate(90) scale(0.7 3)">
<stop stop-color="white"/>
<stop offset="1" stop-color="white" stop-opacity="0"/>
</radialGradient>
<radialGradient id="paint5_radial_1_954" cx="0" cy="0" r="1" gradientUnits="userSpaceOnUse" gradientTransform="translate(3 3.5) rotate(90) scale(3.5 3)">
<stop stop-color="white"/>
<stop offset="1" stop-color="white" stop-opacity="0"/>
</radialGradient>
<radialGradient id="paint6_radial_1_954" cx="0" cy="0" r="1" gradientUnits="userSpaceOnUse" gradientTransform="translate(5 0.5) rotate(90) scale(0.5 5)">
<stop stop-color="white"/>
<stop offset="1" stop-color="white" stop-opacity="0"/>
</radialGradient>
<radialGradient id="paint7_radial_1_954" cx="0" cy="0" r="1" gradientUnits="userSpaceOnUse" gradientTransform="translate(5 2.5) rotate(90) scale(2.5 5)">
<stop stop-color="white"/>
<stop offset="1" stop-color="white" stop-opacity="0"/>
</radialGradient>
<radialGradient id="paint8_radial_1_954" cx="0" cy="0" r="1" gradientUnits="userSpaceOnUse" gradientTransform="translate(5 0.5) rotate(90) scale(0.5 5)">
<stop stop-color="white"/>
<stop offset="1" stop-color="white" stop-opacity="0"/>
</radialGradient>
<radialGradient id="paint9_radial_1_954" cx="0" cy="0" r="1" gradientUnits="userSpaceOnUse" gradientTransform="translate(5 2.5) rotate(90) scale(2.5 5)">
<stop stop-color="white"/>
<stop offset="1" stop-color="white" stop-opacity="0"/>
</radialGradient>
<linearGradient id="paint10_linear_1_954" x1="10.9051" y1="15.8977" x2="63.231" y2="15.8977" gradientUnits="userSpaceOnUse">
<stop stop-color="#3D3D3F"/>
<stop offset="1" stop-color="#828389"/>
</linearGradient>
<linearGradient id="paint11_linear_1_954" x1="10.198" y1="15.1905" x2="62.5239" y2="15.1905" gradientUnits="userSpaceOnUse">
<stop stop-color="#515056"/>
<stop offset="0.479164" stop-color="#C6C7CC"/>
</linearGradient>
<radialGradient id="paint12_angular_1_954" cx="0" cy="0" r="1" gradientUnits="userSpaceOnUse" gradientTransform="translate(40.049 7.7659) rotate(45) scale(3)">
<stop stop-color="#3C4C64"/>
<stop offset="1" stop-color="#99ADCF"/>
</radialGradient>
<linearGradient id="paint13_linear_1_954" x1="37.9277" y1="5.64458" x2="42.1703" y2="9.88722" gradientUnits="userSpaceOnUse">
<stop stop-color="white"/>
<stop offset="1"/>
</linearGradient>
<radialGradient id="paint14_radial_1_954" cx="0" cy="0" r="1" gradientUnits="userSpaceOnUse" gradientTransform="translate(3 0.7) rotate(90) scale(0.7 3)">
<stop stop-color="white"/>
<stop offset="1" stop-color="white" stop-opacity="0"/>
</radialGradient>
<radialGradient id="paint15_radial_1_954" cx="0" cy="0" r="1" gradientUnits="userSpaceOnUse" gradientTransform="translate(3 3.5) rotate(90) scale(3.5 3)">
<stop stop-color="white"/>
<stop offset="1" stop-color="white" stop-opacity="0"/>
</radialGradient>
<radialGradient id="paint16_radial_1_954" cx="0" cy="0" r="1" gradientUnits="userSpaceOnUse" gradientTransform="translate(5 0.5) rotate(90) scale(0.5 5)">
<stop stop-color="white"/>
<stop offset="1" stop-color="white" stop-opacity="0"/>
</radialGradient>
<radialGradient id="paint17_radial_1_954" cx="0" cy="0" r="1" gradientUnits="userSpaceOnUse" gradientTransform="translate(5 2.5) rotate(90) scale(2.5 5)">
<stop stop-color="white"/>
<stop offset="1" stop-color="white" stop-opacity="0"/>
</radialGradient>
<radialGradient id="paint18_radial_1_954" cx="0" cy="0" r="1" gradientUnits="userSpaceOnUse" gradientTransform="translate(5 0.5) rotate(90) scale(0.5 5)">
<stop stop-color="white"/>
<stop offset="1" stop-color="white" stop-opacity="0"/>
</radialGradient>
<radialGradient id="paint19_radial_1_954" cx="0" cy="0" r="1" gradientUnits="userSpaceOnUse" gradientTransform="translate(5 2.5) rotate(90) scale(2.5 5)">
<stop stop-color="white"/>
<stop offset="1" stop-color="white" stop-opacity="0"/>
</radialGradient>
<linearGradient id="paint20_linear_1_954" x1="-0.201636" y1="38.1023" x2="52.1243" y2="38.1023" gradientUnits="userSpaceOnUse">
<stop stop-color="#3D3D3F"/>
<stop offset="1" stop-color="#828389"/>
</linearGradient>
<linearGradient id="paint21_linear_1_954" x1="-0.908721" y1="38.8094" x2="51.4172" y2="38.8094" gradientUnits="userSpaceOnUse">
<stop stop-color="#515056"/>
<stop offset="0.479164" stop-color="#C6C7CC"/>
</linearGradient>
<radialGradient id="paint22_angular_1_954" cx="0" cy="0" r="1" gradientUnits="userSpaceOnUse" gradientTransform="translate(88.9418 46.2341) rotate(-45) scale(3)">
<stop stop-color="#3C4C64"/>
<stop offset="1" stop-color="#99ADCF"/>
</radialGradient>
<linearGradient id="paint23_linear_1_954" x1="86.8205" y1="48.3554" x2="91.0631" y2="44.1127" gradientUnits="userSpaceOnUse">
<stop stop-color="white"/>
<stop offset="1"/>
</linearGradient>
<radialGradient id="paint24_radial_1_954" cx="0" cy="0" r="1" gradientUnits="userSpaceOnUse" gradientTransform="translate(89.2954 46.5876) rotate(90) scale(0.7 3)">
<stop stop-color="white"/>
<stop offset="1" stop-color="white" stop-opacity="0"/>
</radialGradient>
<radialGradient id="paint25_radial_1_954" cx="0" cy="0" r="1" gradientUnits="userSpaceOnUse" gradientTransform="translate(89.2954 46.5876) rotate(90) scale(3.5 3)">
<stop stop-color="white"/>
<stop offset="1" stop-color="white" stop-opacity="0"/>
</radialGradient>
<radialGradient id="paint26_radial_1_954" cx="0" cy="0" r="1" gradientUnits="userSpaceOnUse" gradientTransform="translate(4.74811 43.7592) rotate(90) scale(0.5 5)">
<stop stop-color="white"/>
<stop offset="1" stop-color="white" stop-opacity="0"/>
</radialGradient>
<radialGradient id="paint27_radial_1_954" cx="0" cy="0" r="1" gradientUnits="userSpaceOnUse" gradientTransform="translate(4.74811 43.7592) rotate(90) scale(2.5 5)">
<stop stop-color="white"/>
<stop offset="1" stop-color="white" stop-opacity="0"/>
</radialGradient>
<radialGradient id="paint28_radial_1_954" cx="0" cy="0" r="1" gradientUnits="userSpaceOnUse" gradientTransform="translate(67.5288 46.2341) rotate(90) scale(0.5 15.5288)">
<stop stop-color="white"/>
<stop offset="1" stop-color="white" stop-opacity="0"/>
</radialGradient>
<radialGradient id="paint29_radial_1_954" cx="0" cy="0" r="1" gradientUnits="userSpaceOnUse" gradientTransform="translate(67.5288 46.2341) rotate(90) scale(2.5 15.5288)">
<stop stop-color="white"/>
<stop offset="1" stop-color="white" stop-opacity="0"/>
</radialGradient>
<linearGradient id="paint30_linear_1_954" x1="-10.2016" y1="34.1023" x2="42.1243" y2="34.1023" gradientUnits="userSpaceOnUse">
<stop stop-color="#3D3D3F"/>
<stop offset="1" stop-color="#828389"/>
</linearGradient>
<linearGradient id="paint31_linear_1_954" x1="-10.9087" y1="34.8094" x2="41.4172" y2="34.8094" gradientUnits="userSpaceOnUse">
<stop stop-color="#515056"/>
<stop offset="0.479164" stop-color="#C6C7CC"/>
</linearGradient>
<radialGradient id="paint32_angular_1_954" cx="0" cy="0" r="1" gradientUnits="userSpaceOnUse" gradientTransform="translate(78.9418 42.2341) rotate(-45) scale(3)">
<stop stop-color="#3C4C64"/>
<stop offset="1" stop-color="#99ADCF"/>
</radialGradient>
<linearGradient id="paint33_linear_1_954" x1="76.8205" y1="44.3554" x2="81.0632" y2="40.1127" gradientUnits="userSpaceOnUse">
<stop stop-color="white"/>
<stop offset="1"/>
</linearGradient>
<radialGradient id="paint34_radial_1_954" cx="0" cy="0" r="1" gradientUnits="userSpaceOnUse" gradientTransform="translate(79.2954 42.5876) rotate(90) scale(0.7 3)">
<stop stop-color="white"/>
<stop offset="1" stop-color="white" stop-opacity="0"/>
</radialGradient>
<radialGradient id="paint35_radial_1_954" cx="0" cy="0" r="1" gradientUnits="userSpaceOnUse" gradientTransform="translate(79.2954 42.5876) rotate(90) scale(3.5 3)">
<stop stop-color="white"/>
<stop offset="1" stop-color="white" stop-opacity="0"/>
</radialGradient>
<radialGradient id="paint36_radial_1_954" cx="0" cy="0" r="1" gradientUnits="userSpaceOnUse" gradientTransform="translate(-5.25189 39.7592) rotate(90) scale(2.5 5)">
<stop stop-color="white"/>
<stop offset="1" stop-color="white" stop-opacity="0"/>
</radialGradient>
<radialGradient id="paint37_radial_1_954" cx="0" cy="0" r="1" gradientUnits="userSpaceOnUse" gradientTransform="translate(57.5288 42.2341) rotate(90) scale(0.5 15.5288)">
<stop stop-color="white"/>
<stop offset="1" stop-color="white" stop-opacity="0"/>
</radialGradient>
<radialGradient id="paint38_radial_1_954" cx="0" cy="0" r="1" gradientUnits="userSpaceOnUse" gradientTransform="translate(57.5288 42.2341) rotate(90) scale(2.5 15.5288)">
<stop stop-color="white"/>
<stop offset="1" stop-color="white" stop-opacity="0"/>
</radialGradient>
<clipPath id="clip0_1_954">
<rect width="93" height="50" fill="white" transform="matrix(-1 0 0 1 93 0)"/>
</clipPath>
</defs>
</svg>
