<svg width="134" height="52" viewBox="0 0 134 52" fill="none" xmlns="http://www.w3.org/2000/svg">
<g filter="url(#filter0_d_1_951)">
<path d="M4.99997 2C4.99997 0.89543 5.8954 0 6.99997 0H95.1352C95.7294 0 96.2929 0.264283 96.6729 0.721213L128.273 38.7212C129.357 40.0242 128.43 42 126.736 42H6.99997C5.8954 42 4.99997 41.1046 4.99997 40V2Z" fill="url(#paint0_linear_1_951)" shape-rendering="crispEdges"/>
<path d="M5.49997 2C5.49997 1.17157 6.17154 0.5 6.99997 0.5H95.1352C95.5809 0.5 96.0035 0.698212 96.2885 1.04091L127.889 39.0409C128.702 40.0182 128.007 41.5 126.736 41.5H6.99997C6.17154 41.5 5.49997 40.8284 5.49997 40V2Z" stroke="url(#paint1_linear_1_951)" stroke-opacity="0.9" shape-rendering="crispEdges"/>
</g>
<defs>
<filter id="filter0_d_1_951" x="-3.05176e-05" y="0" width="133.739" height="52" filterUnits="userSpaceOnUse" color-interpolation-filters="sRGB">
<feFlood flood-opacity="0" result="BackgroundImageFix"/>
<feColorMatrix in="SourceAlpha" type="matrix" values="0 0 0 0 0 0 0 0 0 0 0 0 0 0 0 0 0 0 127 0" result="hardAlpha"/>
<feOffset dy="5"/>
<feGaussianBlur stdDeviation="2.5"/>
<feComposite in2="hardAlpha" operator="out"/>
<feColorMatrix type="matrix" values="0 0 0 0 0 0 0 0 0 0 0 0 0 0 0 0 0 0 0.3 0"/>
<feBlend mode="normal" in2="BackgroundImageFix" result="effect1_dropShadow_1_951"/>
<feBlend mode="normal" in="SourceGraphic" in2="effect1_dropShadow_1_951" result="shape"/>
</filter>
<linearGradient id="paint0_linear_1_951" x1="4.99997" y1="21" x2="131" y2="21" gradientUnits="userSpaceOnUse">
<stop stop-color="#076CE9" stop-opacity="0.6"/>
<stop offset="1" stop-color="#0E0B26" stop-opacity="0.51"/>
</linearGradient>
<linearGradient id="paint1_linear_1_951" x1="153" y1="21" x2="-27" y2="21" gradientUnits="userSpaceOnUse">
<stop stop-opacity="0"/>
<stop offset="1" stop-color="#19C2EF" stop-opacity="0.33"/>
</linearGradient>
</defs>
</svg>
