<svg width="134" height="52" viewBox="0 0 134 52" fill="none" xmlns="http://www.w3.org/2000/svg">
<g filter="url(#filter0_d_1_888)">
<path d="M129 1.99997C129 0.8954 128.105 -3.05176e-05 127 -3.05176e-05H38.8648C38.2705 -3.05176e-05 37.707 0.264253 37.327 0.721183L5.72659 38.7212C4.643 40.0242 5.56963 42 7.26434 42H127C128.105 42 129 41.1045 129 40V1.99997Z" fill="url(#paint0_linear_1_888)" shape-rendering="crispEdges"/>
<path d="M128.5 1.99997C128.5 1.17154 127.828 0.499969 127 0.499969H38.8648C38.4191 0.499969 37.9965 0.698181 37.7115 1.04088L6.11102 39.0409C5.29833 40.0182 5.99331 41.5 7.26434 41.5H127C127.828 41.5 128.5 40.8284 128.5 40V1.99997Z" stroke="url(#paint1_linear_1_888)" stroke-opacity="0.9" shape-rendering="crispEdges"/>
</g>
<defs>
<filter id="filter0_d_1_888" x="0.260529" y="-3.05176e-05" width="133.739" height="52" filterUnits="userSpaceOnUse" color-interpolation-filters="sRGB">
<feFlood flood-opacity="0" result="BackgroundImageFix"/>
<feColorMatrix in="SourceAlpha" type="matrix" values="0 0 0 0 0 0 0 0 0 0 0 0 0 0 0 0 0 0 127 0" result="hardAlpha"/>
<feOffset dy="5"/>
<feGaussianBlur stdDeviation="2.5"/>
<feComposite in2="hardAlpha" operator="out"/>
<feColorMatrix type="matrix" values="0 0 0 0 0 0 0 0 0 0 0 0 0 0 0 0 0 0 0.3 0"/>
<feBlend mode="normal" in2="BackgroundImageFix" result="effect1_dropShadow_1_888"/>
<feBlend mode="normal" in="SourceGraphic" in2="effect1_dropShadow_1_888" result="shape"/>
</filter>
<linearGradient id="paint0_linear_1_888" x1="129" y1="21" x2="2.99997" y2="21" gradientUnits="userSpaceOnUse">
<stop stop-color="#076CE9" stop-opacity="0.6"/>
<stop offset="1" stop-color="#0E0B26" stop-opacity="0.51"/>
</linearGradient>
<linearGradient id="paint1_linear_1_888" x1="-19" y1="21" x2="161" y2="21" gradientUnits="userSpaceOnUse">
<stop stop-opacity="0"/>
<stop offset="1" stop-color="#19C2EF" stop-opacity="0.33"/>
</linearGradient>
</defs>
</svg>
