<svg width="120" height="120" viewBox="0 0 120 120" fill="none" xmlns="http://www.w3.org/2000/svg">
<circle opacity="0.7" cx="60" cy="60" r="60" fill="url(#paint0_radial_1_25)"/>
<path d="M56.3157 96.0618V93.0729C48.8097 92.235 41.8117 88.8694 36.4712 83.5288C31.1306 78.1883 27.7651 71.1903 26.9272 63.6842H23.9381C24.7976 71.9779 28.485 79.7231 34.3809 85.619C40.2768 91.5149 48.0221 95.2023 56.3157 96.0618Z" fill="url(#paint1_linear_1_25)"/>
<path d="M55.8157 99.4479C46.7969 98.49 38.372 94.4698 31.9511 88.0489C25.5302 81.6279 21.51 73.203 20.5521 64.1842H22.5342C23.4945 72.6754 27.3073 80.5951 33.356 86.6439C39.4048 92.6927 47.3245 96.5055 55.8157 97.4658V99.4479Z" stroke="#19C2EF" stroke-opacity="0.4"/>
<path d="M96.0619 63.6842H93.0728C92.2349 71.1903 88.8692 78.1882 83.5287 83.5288C78.1881 88.8694 71.1902 92.235 63.6841 93.0729V96.0618C71.9778 95.2023 79.7231 91.5149 85.619 85.619C91.515 79.7231 95.2024 71.9779 96.0619 63.6842Z" fill="url(#paint2_linear_1_25)"/>
<path d="M86.6438 86.6439C92.6926 80.5952 96.5054 72.6754 97.4656 64.1842H99.4479C98.49 73.203 94.4698 81.6279 88.0488 88.0489C81.6278 94.4698 73.2029 98.49 64.1841 99.4479V97.4658C72.6753 96.5055 80.5951 92.6927 86.6438 86.6439Z" stroke="#19C2EF" stroke-opacity="0.4"/>
<path d="M64.1841 20.5521C73.203 21.51 81.6279 25.5303 88.0488 31.9513C94.4698 38.3722 98.49 46.7972 99.4479 55.816H97.4658C96.5055 47.3248 92.6927 39.405 86.6439 33.3563C80.5951 27.3075 72.6753 23.4947 64.1841 22.5345V20.5521Z" stroke="#19C2EF" stroke-opacity="0.4"/>
<path d="M63.6841 23.9381V26.9273C71.1902 27.7651 78.1882 31.1308 83.5287 36.4713C88.8693 41.8119 92.2349 48.8099 93.0728 56.3159H96.0619C95.2024 48.0222 91.515 40.277 85.619 34.381C79.7231 28.4851 71.9778 24.7977 63.6841 23.9381Z" fill="url(#paint3_linear_1_25)"/>
<path d="M24.4967 55.8159C25.4478 47.845 29.0505 40.4184 34.7344 34.7346C40.4182 29.0507 47.8448 25.448 55.8157 24.4969V26.4829C48.3654 27.4146 41.4328 30.8025 36.1176 36.1177C30.8024 41.433 27.4145 48.3656 26.4829 55.8159H24.4967Z" stroke="#19C2EF" stroke-opacity="0.4"/>
<g filter="url(#filter0_d_1_25)">
<path d="M60 90.1869C54.0296 90.1869 48.1933 88.4165 43.2291 85.0995C38.2649 81.7826 34.3958 77.068 32.111 71.5521C29.8263 66.0362 29.2285 59.9666 30.3932 54.111C31.558 48.2553 34.433 42.8766 38.6547 38.6549C42.8764 34.4332 48.2552 31.5581 54.1108 30.3934C59.9665 29.2286 66.0361 29.8264 71.552 32.1112C77.0679 34.396 81.7824 38.2651 85.0994 43.2293C88.4163 48.1934 90.1868 54.0298 90.1868 60.0001C90.1777 68.0034 86.9944 75.6762 81.3352 81.3354C75.6761 86.9945 68.0032 90.1778 60 90.1869ZM60 30.7639C54.2176 30.7639 48.5651 32.4785 43.7573 35.691C38.9494 38.9035 35.2021 43.4695 32.9893 48.8117C30.7764 54.1539 30.1974 60.0323 31.3255 65.7035C32.4535 71.3748 35.238 76.5842 39.3267 80.6729C43.4154 84.7617 48.6248 87.5462 54.296 88.6743C59.9673 89.8024 65.8457 89.2235 71.1879 87.0107C76.5301 84.7979 81.0962 81.0506 84.3087 76.2428C87.5212 71.435 89.2359 65.7825 89.2359 60.0001C89.2272 52.2489 86.1442 44.8177 80.6633 39.3367C75.1824 33.8558 67.7512 30.7727 60 30.7639Z" fill="#DC9535"/>
</g>
<path d="M60 71.1715C57.7905 71.1715 55.6306 70.5163 53.7935 69.2888C51.9563 68.0612 50.5244 66.3164 49.6789 64.2751C48.8334 62.2338 48.6122 59.9876 49.0432 57.8205C49.4743 55.6535 50.5383 53.6629 52.1007 52.1005C53.663 50.5382 55.6536 49.4742 57.8207 49.0432C59.9878 48.6122 62.234 48.8334 64.2753 49.679C66.3166 50.5245 68.0613 51.9564 69.2888 53.7936C70.5164 55.6308 71.1715 57.7907 71.1715 60.0002C71.1681 62.962 69.99 65.8015 67.8957 67.8958C65.8013 69.9901 62.9618 71.1682 60 71.1715ZM60 49.7794C57.9785 49.7794 56.0024 50.3788 54.3216 51.5018C52.6408 52.6249 51.3307 54.2211 50.5571 56.0888C49.7835 57.9564 49.5811 60.0114 49.9754 61.9941C50.3698 63.9767 51.3432 65.7979 52.7726 67.2273C54.202 68.6567 56.0232 69.6302 58.0058 70.0246C59.9885 70.419 62.0435 70.2166 63.9111 69.443C65.7788 68.6694 67.375 67.3594 68.4981 65.6786C69.6212 63.9978 70.2206 62.0217 70.2206 60.0002C70.2176 57.2904 69.1398 54.6925 67.2237 52.7764C65.3077 50.8603 62.7098 49.7825 60 49.7794Z" fill="#19C2EF"/>
<g filter="url(#filter1_d_1_25)">
<path d="M62.3768 60.0002C62.3768 60.4703 62.2374 60.9298 61.9762 61.3207C61.715 61.7115 61.3438 62.0162 60.9095 62.1961C60.4751 62.3759 59.9972 62.423 59.5362 62.3313C59.0751 62.2395 58.6516 62.0132 58.3192 61.6807C57.9868 61.3483 57.7604 60.9248 57.6687 60.4637C57.577 60.0026 57.6241 59.5247 57.804 59.0904C57.9839 58.6561 58.2886 58.2849 58.6795 58.0237C59.0703 57.7625 59.5299 57.6232 60 57.6232C60.3121 57.6232 60.6212 57.6847 60.9096 57.8041C61.198 57.9236 61.46 58.0987 61.6807 58.3194C61.9014 58.5401 62.0765 58.8021 62.1959 59.0905C62.3154 59.3789 62.3769 59.688 62.3768 60.0002Z" fill="#FFD233"/>
</g>
<path d="M60 75.6084C59.9376 75.6084 59.8758 75.5962 59.8181 75.5723C59.7604 75.5484 59.708 75.5134 59.6638 75.4693C59.6197 75.4251 59.5847 75.3727 59.5608 75.315C59.5369 75.2574 59.5246 75.1956 59.5246 75.1331V70.6962C59.5246 70.5701 59.5747 70.4492 59.6638 70.3601C59.753 70.2709 59.8739 70.2208 59.9999 70.2208C60.126 70.2208 60.2469 70.2709 60.3361 70.3601C60.4252 70.4492 60.4753 70.5701 60.4753 70.6962V75.1331C60.4753 75.1955 60.463 75.2574 60.4391 75.315C60.4152 75.3727 60.3802 75.4251 60.3361 75.4692C60.292 75.5134 60.2396 75.5484 60.1819 75.5723C60.1242 75.5961 60.0624 75.6084 60 75.6084Z" fill="#19C2EF"/>
<path d="M60 49.7793C59.8739 49.7793 59.753 49.7293 59.6639 49.6401C59.5747 49.551 59.5246 49.4301 59.5246 49.3041V44.8671C59.5246 44.741 59.5747 44.6201 59.6638 44.5309C59.753 44.4418 59.8739 44.3917 59.9999 44.3917C60.126 44.3917 60.2469 44.4418 60.3361 44.5309C60.4252 44.6201 60.4753 44.741 60.4753 44.8671V49.3041C60.4753 49.4301 60.4252 49.551 60.336 49.6401C60.2469 49.7292 60.126 49.7793 60 49.7793Z" fill="#19C2EF"/>
<path d="M49.3038 60.4754H44.867C44.7409 60.4754 44.62 60.4253 44.5308 60.3361C44.4416 60.247 44.3915 60.1261 44.3915 60C44.3915 59.8739 44.4416 59.7529 44.5308 59.6638C44.62 59.5746 44.7409 59.5245 44.867 59.5245H49.3038C49.4299 59.5245 49.5508 59.5746 49.64 59.6638C49.7292 59.7529 49.7793 59.8739 49.7793 60C49.7793 60.1261 49.7292 60.247 49.64 60.3361C49.5508 60.4253 49.4299 60.4754 49.3038 60.4754Z" fill="#19C2EF"/>
<path d="M75.133 60.4754H70.6961C70.57 60.4754 70.4491 60.4253 70.3599 60.3361C70.2708 60.247 70.2207 60.1261 70.2207 60C70.2207 59.8739 70.2708 59.7529 70.3599 59.6638C70.4491 59.5746 70.57 59.5245 70.6961 59.5245H75.133C75.259 59.5245 75.38 59.5746 75.4691 59.6638C75.5583 59.7529 75.6084 59.8739 75.6084 60C75.6084 60.1261 75.5583 60.247 75.4691 60.3361C75.38 60.4253 75.259 60.4754 75.133 60.4754Z" fill="#19C2EF"/>
<path d="M49.2992 71.1762C49.2052 71.1762 49.1133 71.1483 49.0351 71.096C48.957 71.0437 48.896 70.9695 48.8601 70.8826C48.8241 70.7958 48.8147 70.7002 48.8331 70.608C48.8514 70.5157 48.8967 70.431 48.9632 70.3646L52.1005 67.2271C52.1447 67.183 52.1971 67.1479 52.2547 67.1241C52.3124 67.1002 52.3742 67.0879 52.4367 67.0879C52.4991 67.0879 52.5609 67.1002 52.6186 67.1241C52.6763 67.148 52.7287 67.183 52.7728 67.2272C52.817 67.2713 52.852 67.3237 52.8758 67.3814C52.8997 67.4391 52.912 67.5009 52.912 67.5633C52.912 67.6258 52.8997 67.6876 52.8758 67.7452C52.8519 67.8029 52.8169 67.8553 52.7727 67.8995L49.6354 71.0369C49.5913 71.0812 49.5389 71.1162 49.4812 71.1401C49.4235 71.164 49.3617 71.1763 49.2992 71.1762Z" fill="#19C2EF"/>
<path d="M67.8995 52.7729L67.2272 52.1009L73.1248 46.2026H86.5631V47.1534H73.5189L67.8995 52.7729Z" fill="#19C2EF"/>
<path d="M52.4367 52.9121C52.3743 52.9122 52.3124 52.8999 52.2547 52.876C52.197 52.8521 52.1446 52.8171 52.1005 52.7728L48.9632 49.6354C48.9189 49.5913 48.8837 49.5389 48.8597 49.4812C48.8357 49.4235 48.8233 49.3616 48.8233 49.2991C48.8232 49.2366 48.8355 49.1747 48.8594 49.1169C48.8833 49.0591 48.9183 49.0067 48.9625 48.9625C49.0067 48.9183 49.0592 48.8832 49.117 48.8594C49.1747 48.8355 49.2366 48.8232 49.2991 48.8233C49.3616 48.8234 49.4235 48.8358 49.4812 48.8598C49.5389 48.8838 49.5913 48.919 49.6354 48.9633L52.7728 52.1008C52.8392 52.1672 52.8845 52.2519 52.9028 52.3441C52.9211 52.4363 52.9117 52.5318 52.8757 52.6187C52.8398 52.7055 52.7789 52.7797 52.7007 52.832C52.6226 52.8842 52.5307 52.9121 52.4367 52.9121Z" fill="#19C2EF"/>
<path d="M86.7651 73.3901H72.7176L67.2271 67.8995C67.1381 67.8103 67.0881 67.6895 67.0882 67.5635C67.0883 67.4375 67.1383 67.3167 67.2274 67.2276C67.3165 67.1385 67.4373 67.0884 67.5633 67.0883C67.6892 67.0882 67.8101 67.1382 67.8993 67.2271L73.1115 72.4393H86.7651C86.8912 72.4393 87.0121 72.4894 87.1013 72.5786C87.1905 72.6677 87.2405 72.7886 87.2405 72.9147C87.2405 73.0408 87.1905 73.1617 87.1013 73.2509C87.0121 73.3401 86.8912 73.3901 86.7651 73.3901Z" fill="#19C2EF"/>
<path d="M60 65.2294C58.9658 65.2294 57.9547 64.9227 57.0948 64.3481C56.2349 63.7735 55.5646 62.9568 55.1688 62.0013C54.773 61.0458 54.6695 59.9944 54.8713 58.98C55.073 57.9656 55.5711 57.0339 56.3024 56.3025C57.0337 55.5712 57.9655 55.0732 58.9798 54.8714C59.9942 54.6696 61.0456 54.7732 62.0011 55.169C62.9567 55.5648 63.7734 56.235 64.3479 57.095C64.9225 57.9549 65.2292 58.9659 65.2292 60.0002C65.2276 61.3866 64.6762 62.7157 63.6959 63.696C62.7156 64.6764 61.3864 65.2278 60 65.2294ZM60 55.7215C59.1538 55.7215 58.3266 55.9724 57.623 56.4425C56.9194 56.9126 56.371 57.5808 56.0471 58.3626C55.7233 59.1444 55.6385 60.0046 55.8036 60.8346C55.9686 61.6645 56.3761 62.4269 56.9744 63.0253C57.5728 63.6237 58.3351 64.0312 59.1651 64.1963C59.995 64.3614 60.8553 64.2767 61.6371 63.9529C62.4189 63.6291 63.0871 63.0807 63.5573 62.3771C64.0274 61.6736 64.2784 60.8464 64.2784 60.0002C64.2772 58.8658 63.826 57.7783 63.0239 56.9762C62.2218 56.174 61.1343 55.7228 60 55.7215Z" fill="#19C2EF"/>
<g opacity="0.5">
<path d="M60.005 36.1009L59.9889 37.757L59.6183 37.7532L59.6345 36.0974L60.005 36.1009Z" fill="#DC9535"/>
<path d="M58.6878 36.1144L58.763 37.7687L58.3928 37.7858L58.3176 36.1311L58.6878 36.1144Z" fill="#DC9535"/>
<path d="M57.3708 36.2011L57.5375 37.8487L57.169 37.886L57.0022 36.2384L57.3708 36.2011Z" fill="#DC9535"/>
<path d="M56.0657 36.3597L56.3238 37.9959L55.9577 38.0535L55.6997 36.4176L56.0657 36.3597Z" fill="#DC9535"/>
<path d="M54.7709 36.5905L55.1192 38.2096L54.7569 38.2878L54.4086 36.6687L54.7709 36.5905Z" fill="#DC9535"/>
<path d="M53.489 36.8935L53.9264 38.4909L53.5692 38.5887L53.1317 36.9913L53.489 36.8935Z" fill="#DC9535"/>
<path d="M52.2272 37.2665L52.7525 38.8371L52.4009 38.9546L51.8758 37.384L52.2272 37.2665Z" fill="#DC9535"/>
<path d="M50.9887 37.7083L51.5995 39.2478L51.2553 39.3844L50.6443 37.8449L50.9887 37.7083Z" fill="#DC9535"/>
<path d="M49.7759 38.2179L50.4707 39.7213L50.1342 39.8766L49.4393 38.3733L49.7759 38.2179Z" fill="#DC9535"/>
<path d="M48.5875 38.7963L49.3641 40.2592L49.037 40.4328L48.2605 38.9699L48.5875 38.7963Z" fill="#DC9535"/>
<path d="M47.4427 39.4335L48.2979 40.8516L47.9808 41.0429L47.1254 39.625L47.4427 39.4335Z" fill="#DC9535"/>
<path d="M46.3279 40.1361L47.2595 41.5056L46.9533 41.7138L46.0217 40.3447L46.3279 40.1361Z" fill="#DC9535"/>
<path d="M45.254 40.8986L46.2595 42.2145L45.9647 42.4395L44.9597 41.1236L45.254 40.8986Z" fill="#DC9535"/>
<path d="M44.2238 41.7184L45.2998 42.9777L45.0179 43.2186L43.9421 41.9593L44.2238 41.7184Z" fill="#DC9535"/>
<path d="M43.2425 42.5914L44.3855 43.7899L44.1174 44.0458L42.9742 42.8473L43.2425 42.5914Z" fill="#DC9535"/>
<path d="M42.309 43.5176L43.5162 44.6518L43.2622 44.9217L42.0552 43.7876L42.309 43.5176Z" fill="#DC9535"/>
<path d="M41.4263 44.4955L42.694 45.5615L42.4553 45.845L41.1878 44.7793L41.4263 44.4955Z" fill="#DC9535"/>
<path d="M40.5997 45.5195L41.9238 46.5139L41.7013 46.8102L40.3771 45.8159L40.5997 45.5195Z" fill="#DC9535"/>
<path d="M39.8307 46.5873L41.208 47.507L41.0022 47.8151L39.625 46.8954L39.8307 46.5873Z" fill="#DC9535"/>
<path d="M39.1216 47.6962L40.5474 48.5383L40.359 48.8573L38.9329 48.0149L39.1216 47.6962Z" fill="#DC9535"/>
<path d="M38.4742 48.8441L39.945 49.6061L39.7745 49.9351L38.3039 49.1731L38.4742 48.8441Z" fill="#DC9535"/>
<path d="M37.8927 50.0249L39.4032 50.7037L39.2511 51.0419L37.7405 50.3627L37.8927 50.0249Z" fill="#DC9535"/>
<path d="M37.3772 51.2354L38.9229 51.83L38.7901 52.1757L37.2443 51.5814L37.3772 51.2354Z" fill="#DC9535"/>
<path d="M36.9294 52.4736L38.506 52.9815L38.3921 53.334L36.8159 52.8264L36.9294 52.4736Z" fill="#DC9535"/>
<path d="M36.5517 53.7323L38.1538 54.1524L38.0598 54.511L36.4576 54.0904L36.5517 53.7323Z" fill="#DC9535"/>
<path d="M36.2426 55.0131L37.8651 55.3447L37.7908 55.7078L36.1683 55.3758L36.2426 55.0131Z" fill="#DC9535"/>
<path d="M36.0063 56.3022L37.6431 56.5542L37.5866 56.9202L35.9499 56.6685L36.0063 56.3022Z" fill="#DC9535"/>
<path d="M35.8366 57.6118L37.4858 57.7662L37.451 58.1349L35.8022 57.9807L35.8366 57.6118Z" fill="#DC9535"/>
<path d="M35.7401 58.9218L37.3952 58.9862L37.3806 59.3565L35.7258 59.2922L35.7401 58.9218Z" fill="#DC9535"/>
<path d="M35.7154 60.2407L37.3715 60.2134L37.3774 60.5844L35.7216 60.6111L35.7154 60.2407Z" fill="#DC9535"/>
<path d="M35.7632 61.5564L37.4152 61.438L37.4416 61.8072L35.7897 61.9259L35.7632 61.5564Z" fill="#DC9535"/>
<path d="M35.8838 62.8662L37.5264 62.6562L37.5733 63.0234L35.9307 63.2337L35.8838 62.8662Z" fill="#DC9535"/>
<path d="M36.0765 64.1669L37.7048 63.8661L37.7723 64.2307L36.1436 64.5315L36.0765 64.1669Z" fill="#DC9535"/>
<path d="M36.3415 65.4562L37.9509 65.0658L38.0383 65.4259L36.4286 65.8163L36.3415 65.4562Z" fill="#DC9535"/>
<path d="M36.6782 66.7312L38.2635 66.2521L38.3707 66.6069L36.7854 67.0857L36.6782 66.7312Z" fill="#DC9535"/>
<path d="M37.0829 67.9805L38.6393 67.4147L38.7662 67.7628L37.2097 68.3286L37.0829 67.9805Z" fill="#DC9535"/>
<path d="M37.5578 69.2095L39.0808 68.5586L39.2264 68.8991L37.7034 69.55L37.5578 69.2095Z" fill="#DC9535"/>
<path d="M38.0981 70.4072L39.5831 69.6737L39.7472 70.0059L38.2622 70.7394L38.0981 70.4072Z" fill="#DC9535"/>
<path d="M38.7063 71.579L40.1486 70.765L40.3309 71.0878L38.8886 71.9018L38.7063 71.579Z" fill="#DC9535"/>
<path d="M39.3748 72.7105L40.7704 71.8187L40.97 72.1306L39.5743 73.0224L39.3748 72.7105Z" fill="#DC9535"/>
<path d="M40.1033 73.8019L41.4481 72.8355L41.6644 73.1363L40.3197 74.1033L40.1033 73.8019Z" fill="#DC9535"/>
<path d="M40.8933 74.856L42.1833 73.8173L42.4155 74.1057L41.1257 75.1447L40.8933 74.856Z" fill="#DC9535"/>
<path d="M41.7399 75.8654L42.9709 74.7574L43.2186 75.0327L41.9878 76.1407L41.7399 75.8654Z" fill="#DC9535"/>
<path d="M42.638 76.8246L43.8065 75.6508L44.0691 75.9122L42.9006 77.086L42.638 76.8246Z" fill="#DC9535"/>
<path d="M43.5889 77.7343L44.6913 76.4985L44.9677 76.7453L43.8653 77.9811L43.5889 77.7343Z" fill="#DC9535"/>
<path d="M44.5869 78.5894L45.6198 77.2949L45.9092 77.5257L44.8767 78.8203L44.5869 78.5894Z" fill="#DC9535"/>
<path d="M45.6331 79.3904L46.5929 78.0406L46.895 78.2554L45.9349 79.6051L45.6331 79.3904Z" fill="#DC9535"/>
<path d="M46.7222 80.1323L47.6059 78.7321L47.9192 78.9294L47.0355 80.3303L46.7222 80.1323Z" fill="#DC9535"/>
<path d="M47.8477 80.8118L48.6525 79.3643L48.9766 79.544L48.1717 80.9919L47.8477 80.8118Z" fill="#DC9535"/>
<path d="M49.0112 81.4281L49.7346 79.9382L50.068 80.0998L49.3446 81.5899L49.0112 81.4281Z" fill="#DC9535"/>
<path d="M50.2062 81.9786L50.8458 80.4511L51.1876 80.5942L50.5481 82.1219L50.2062 81.9786Z" fill="#DC9535"/>
<path d="M51.4343 82.4638L51.9879 80.9029L52.3371 81.0269L51.7834 82.5878L51.4343 82.4638Z" fill="#DC9535"/>
<path d="M52.6797 82.8778L53.1464 81.2889L53.5018 81.3935L53.0352 82.9821L52.6797 82.8778Z" fill="#DC9535"/>
<path d="M53.9533 83.2243L54.3318 81.6119L54.6927 81.6968L54.314 83.3092L53.9533 83.2243Z" fill="#DC9535"/>
<path d="M55.2388 83.4993L55.5289 81.8691L55.8939 81.934L55.6038 83.5646L55.2388 83.4993Z" fill="#DC9535"/>
<path d="M56.5334 83.7041L56.732 82.06L57.0999 82.1043L56.901 83.7484L56.5334 83.7041Z" fill="#DC9535"/>
<path d="M57.8375 83.8379L57.9501 82.1856L58.3199 82.2109L58.2073 83.8629L57.8375 83.8379Z" fill="#DC9535"/>
<path d="M59.1527 83.9013L59.1744 82.2452L59.545 82.2502L59.5231 83.9066L59.1527 83.9013Z" fill="#DC9535"/>
<path d="M60.4657 83.8926L60.3962 82.2379L60.7665 82.2224L60.8358 83.877L60.4657 83.8926Z" fill="#DC9535"/>
<path d="M94.5525 56.3155H89.4259C89.2998 56.3155 89.1788 56.2654 89.0897 56.1762C89.0005 56.0871 88.9504 55.9661 88.9504 55.84C88.9504 55.714 89.0005 55.593 89.0897 55.5039C89.1788 55.4147 89.2998 55.3646 89.4259 55.3646H94.5525C94.6786 55.3646 94.7996 55.4147 94.8887 55.5039C94.9779 55.593 95.028 55.714 95.028 55.84C95.028 55.9661 94.9779 56.0871 94.8887 56.1762C94.7996 56.2654 94.6786 56.3155 94.5525 56.3155Z" fill="#DC9535"/>
<path d="M94.5526 64.6346H89.4259C89.2998 64.6346 89.179 64.5845 89.0898 64.4954C89.0007 64.4062 88.9506 64.2853 88.9506 64.1593C88.9506 64.0332 89.0007 63.9124 89.0898 63.8232C89.179 63.7341 89.2998 63.684 89.4259 63.684H94.5526C94.6786 63.684 94.7995 63.7341 94.8886 63.8232C94.9778 63.9124 95.0278 64.0332 95.0278 64.1593C95.0278 64.2853 94.9778 64.4062 94.8886 64.4954C94.7995 64.5845 94.6786 64.6346 94.5526 64.6346Z" fill="#DC9535"/>
<path d="M30.3758 56.3155H25.2492C25.1231 56.3155 25.0021 56.2654 24.913 56.1762C24.8238 56.0871 24.7737 55.9661 24.7737 55.84C24.7737 55.714 24.8238 55.593 24.913 55.5039C25.0021 55.4147 25.1231 55.3646 25.2492 55.3646H30.3758C30.5019 55.3646 30.6229 55.4147 30.712 55.5039C30.8012 55.593 30.8513 55.714 30.8513 55.84C30.8513 55.9661 30.8012 56.0871 30.712 56.1762C30.6229 56.2654 30.5019 56.3155 30.3758 56.3155Z" fill="#DC9535"/>
<path d="M30.3759 64.6346H25.2492C25.1231 64.6346 25.0023 64.5845 24.9131 64.4954C24.824 64.4062 24.7739 64.2853 24.7739 64.1593C24.7739 64.0332 24.824 63.9124 24.9131 63.8232C25.0023 63.7341 25.1231 63.684 25.2492 63.684H30.3759C30.5019 63.684 30.6228 63.7341 30.7119 63.8232C30.8011 63.9124 30.8511 64.0332 30.8511 64.1593C30.8511 64.2853 30.8011 64.4062 30.7119 64.4954C30.6228 64.5845 30.5019 64.6346 30.3759 64.6346Z" fill="#DC9535"/>
</g>
<path d="M36.776 27.2243H31.4761L25.2492 33.4514V39.8459C22.3174 44.8866 20.5257 50.5084 20 56.316H22.9835C23.8465 47.7696 27.6356 39.7838 33.7095 33.7098C39.7835 27.6359 47.7693 23.8468 56.3157 22.9838V20C49.2782 20.6376 42.5357 23.1304 36.776 27.2243Z" fill="url(#paint4_linear_1_25)"/>
<defs>
<filter id="filter0_d_1_25" x="24.8132" y="24.8133" width="70.3736" height="70.3736" filterUnits="userSpaceOnUse" color-interpolation-filters="sRGB">
<feFlood flood-opacity="0" result="BackgroundImageFix"/>
<feColorMatrix in="SourceAlpha" type="matrix" values="0 0 0 0 0 0 0 0 0 0 0 0 0 0 0 0 0 0 127 0" result="hardAlpha"/>
<feOffset/>
<feGaussianBlur stdDeviation="2.5"/>
<feComposite in2="hardAlpha" operator="out"/>
<feColorMatrix type="matrix" values="0 0 0 0 0.976471 0 0 0 0 0.811765 0 0 0 0 0.301961 0 0 0 0.5 0"/>
<feBlend mode="normal" in2="BackgroundImageFix" result="effect1_dropShadow_1_25"/>
<feBlend mode="normal" in="SourceGraphic" in2="effect1_dropShadow_1_25" result="shape"/>
</filter>
<filter id="filter1_d_1_25" x="47.623" y="47.6232" width="24.7538" height="24.7538" filterUnits="userSpaceOnUse" color-interpolation-filters="sRGB">
<feFlood flood-opacity="0" result="BackgroundImageFix"/>
<feColorMatrix in="SourceAlpha" type="matrix" values="0 0 0 0 0 0 0 0 0 0 0 0 0 0 0 0 0 0 127 0" result="hardAlpha"/>
<feOffset/>
<feGaussianBlur stdDeviation="5"/>
<feComposite in2="hardAlpha" operator="out"/>
<feColorMatrix type="matrix" values="0 0 0 0 1 0 0 0 0 0.583588 0 0 0 0 0.00423177 0 0 0 1 0"/>
<feBlend mode="normal" in2="BackgroundImageFix" result="effect1_dropShadow_1_25"/>
<feBlend mode="normal" in="SourceGraphic" in2="effect1_dropShadow_1_25" result="shape"/>
</filter>
<radialGradient id="paint0_radial_1_25" cx="0" cy="0" r="1" gradientUnits="userSpaceOnUse" gradientTransform="translate(60 60) rotate(90) scale(60)">
<stop stop-color="#19C2EF"/>
<stop offset="1" stop-color="#056CE9" stop-opacity="0"/>
</radialGradient>
<linearGradient id="paint1_linear_1_25" x1="40.1269" y1="63.6842" x2="40.1269" y2="96.0618" gradientUnits="userSpaceOnUse">
<stop stop-color="#0974F8"/>
<stop offset="1" stop-color="#4FB2FE"/>
</linearGradient>
<linearGradient id="paint2_linear_1_25" x1="79.873" y1="63.6842" x2="79.873" y2="96.0618" gradientUnits="userSpaceOnUse">
<stop stop-color="#0974F8"/>
<stop offset="1" stop-color="#4FB2FE"/>
</linearGradient>
<linearGradient id="paint3_linear_1_25" x1="79.873" y1="23.9381" x2="79.873" y2="56.3159" gradientUnits="userSpaceOnUse">
<stop stop-color="#0974F8"/>
<stop offset="1" stop-color="#4FB2FE"/>
</linearGradient>
<linearGradient id="paint4_linear_1_25" x1="38.1579" y1="20" x2="38.1579" y2="56.316" gradientUnits="userSpaceOnUse">
<stop stop-color="#0974F8"/>
<stop offset="1" stop-color="#4FB2FE"/>
</linearGradient>
</defs>
</svg>
