<svg width="112" height="29" viewBox="0 0 112 29" fill="none" xmlns="http://www.w3.org/2000/svg">
<path d="M99 58H0V57H99V58Z" fill="url(#paint0_linear_1_430)"/>
<path d="M102 55H3V54H102V55Z" fill="url(#paint1_linear_1_430)"/>
<path d="M105 52H6V51H105V52Z" fill="url(#paint2_linear_1_430)"/>
<path d="M108 49H9V48H108V49Z" fill="url(#paint3_linear_1_430)"/>
<path d="M111 46H12V45H111V46Z" fill="url(#paint4_linear_1_430)"/>
<path d="M114 43H15V42H114V43Z" fill="url(#paint5_linear_1_430)"/>
<path d="M117 40H18V39H117V40Z" fill="url(#paint6_linear_1_430)"/>
<path d="M120 37H21V36H120V37Z" fill="url(#paint7_linear_1_430)"/>
<path d="M123 34H24V33H123V34Z" fill="url(#paint8_linear_1_430)"/>
<path d="M126 31H27V30H126V31Z" fill="url(#paint9_linear_1_430)"/>
<path d="M129 28H30V27H129V28Z" fill="url(#paint10_linear_1_430)"/>
<path d="M132 25H33V24H132V25Z" fill="url(#paint11_linear_1_430)"/>
<path d="M135 22H36V21H135V22Z" fill="url(#paint12_linear_1_430)"/>
<path d="M138 19H39V18H138V19Z" fill="url(#paint13_linear_1_430)"/>
<path d="M141 16H42V15H141V16Z" fill="url(#paint14_linear_1_430)"/>
<path d="M144 13H45V12H144V13Z" fill="url(#paint15_linear_1_430)"/>
<path d="M147 10H48V9H147V10Z" fill="url(#paint16_linear_1_430)"/>
<path d="M150 7H51V6H150V7Z" fill="url(#paint17_linear_1_430)"/>
<path d="M153 4H54V3H153V4Z" fill="url(#paint18_linear_1_430)"/>
<path d="M156 1H57V0H156V1Z" fill="url(#paint19_linear_1_430)"/>
<defs>
<linearGradient id="paint0_linear_1_430" x1="61" y1="6.25001" x2="134.838" y2="80.0885" gradientUnits="userSpaceOnUse">
<stop stop-color="#FD9D17" stop-opacity="0"/>
<stop offset="1" stop-color="#FD9D17"/>
</linearGradient>
<linearGradient id="paint1_linear_1_430" x1="61" y1="6.25001" x2="134.838" y2="80.0885" gradientUnits="userSpaceOnUse">
<stop stop-color="#FD9D17" stop-opacity="0"/>
<stop offset="1" stop-color="#FD9D17"/>
</linearGradient>
<linearGradient id="paint2_linear_1_430" x1="61" y1="6.25001" x2="134.838" y2="80.0885" gradientUnits="userSpaceOnUse">
<stop stop-color="#FD9D17" stop-opacity="0"/>
<stop offset="1" stop-color="#FD9D17"/>
</linearGradient>
<linearGradient id="paint3_linear_1_430" x1="61" y1="6.25001" x2="134.838" y2="80.0885" gradientUnits="userSpaceOnUse">
<stop stop-color="#FD9D17" stop-opacity="0"/>
<stop offset="1" stop-color="#FD9D17"/>
</linearGradient>
<linearGradient id="paint4_linear_1_430" x1="61" y1="6.25001" x2="134.838" y2="80.0885" gradientUnits="userSpaceOnUse">
<stop stop-color="#FD9D17" stop-opacity="0"/>
<stop offset="1" stop-color="#FD9D17"/>
</linearGradient>
<linearGradient id="paint5_linear_1_430" x1="61" y1="6.25001" x2="134.838" y2="80.0885" gradientUnits="userSpaceOnUse">
<stop stop-color="#FD9D17" stop-opacity="0"/>
<stop offset="1" stop-color="#FD9D17"/>
</linearGradient>
<linearGradient id="paint6_linear_1_430" x1="61" y1="6.25001" x2="134.838" y2="80.0885" gradientUnits="userSpaceOnUse">
<stop stop-color="#FD9D17" stop-opacity="0"/>
<stop offset="1" stop-color="#FD9D17"/>
</linearGradient>
<linearGradient id="paint7_linear_1_430" x1="61" y1="6.25001" x2="134.838" y2="80.0885" gradientUnits="userSpaceOnUse">
<stop stop-color="#FD9D17" stop-opacity="0"/>
<stop offset="1" stop-color="#FD9D17"/>
</linearGradient>
<linearGradient id="paint8_linear_1_430" x1="61" y1="6.25001" x2="134.838" y2="80.0885" gradientUnits="userSpaceOnUse">
<stop stop-color="#FD9D17" stop-opacity="0"/>
<stop offset="1" stop-color="#FD9D17"/>
</linearGradient>
<linearGradient id="paint9_linear_1_430" x1="61" y1="6.25001" x2="134.838" y2="80.0885" gradientUnits="userSpaceOnUse">
<stop stop-color="#FD9D17" stop-opacity="0"/>
<stop offset="1" stop-color="#FD9D17"/>
</linearGradient>
<linearGradient id="paint10_linear_1_430" x1="61" y1="6.25001" x2="134.838" y2="80.0885" gradientUnits="userSpaceOnUse">
<stop stop-color="#FD9D17" stop-opacity="0"/>
<stop offset="1" stop-color="#FD9D17"/>
</linearGradient>
<linearGradient id="paint11_linear_1_430" x1="61" y1="6.25001" x2="134.838" y2="80.0885" gradientUnits="userSpaceOnUse">
<stop stop-color="#FD9D17" stop-opacity="0"/>
<stop offset="1" stop-color="#FD9D17"/>
</linearGradient>
<linearGradient id="paint12_linear_1_430" x1="61" y1="6.25001" x2="134.838" y2="80.0885" gradientUnits="userSpaceOnUse">
<stop stop-color="#FD9D17" stop-opacity="0"/>
<stop offset="1" stop-color="#FD9D17"/>
</linearGradient>
<linearGradient id="paint13_linear_1_430" x1="61" y1="6.25001" x2="134.838" y2="80.0885" gradientUnits="userSpaceOnUse">
<stop stop-color="#FD9D17" stop-opacity="0"/>
<stop offset="1" stop-color="#FD9D17"/>
</linearGradient>
<linearGradient id="paint14_linear_1_430" x1="61" y1="6.25001" x2="134.838" y2="80.0885" gradientUnits="userSpaceOnUse">
<stop stop-color="#FD9D17" stop-opacity="0"/>
<stop offset="1" stop-color="#FD9D17"/>
</linearGradient>
<linearGradient id="paint15_linear_1_430" x1="61" y1="6.25001" x2="134.838" y2="80.0885" gradientUnits="userSpaceOnUse">
<stop stop-color="#FD9D17" stop-opacity="0"/>
<stop offset="1" stop-color="#FD9D17"/>
</linearGradient>
<linearGradient id="paint16_linear_1_430" x1="61" y1="6.25001" x2="134.838" y2="80.0885" gradientUnits="userSpaceOnUse">
<stop stop-color="#FD9D17" stop-opacity="0"/>
<stop offset="1" stop-color="#FD9D17"/>
</linearGradient>
<linearGradient id="paint17_linear_1_430" x1="61" y1="6.25001" x2="134.838" y2="80.0885" gradientUnits="userSpaceOnUse">
<stop stop-color="#FD9D17" stop-opacity="0"/>
<stop offset="1" stop-color="#FD9D17"/>
</linearGradient>
<linearGradient id="paint18_linear_1_430" x1="61" y1="6.25001" x2="134.838" y2="80.0885" gradientUnits="userSpaceOnUse">
<stop stop-color="#FD9D17" stop-opacity="0"/>
<stop offset="1" stop-color="#FD9D17"/>
</linearGradient>
<linearGradient id="paint19_linear_1_430" x1="61" y1="6.25001" x2="134.838" y2="80.0885" gradientUnits="userSpaceOnUse">
<stop stop-color="#FD9D17" stop-opacity="0"/>
<stop offset="1" stop-color="#FD9D17"/>
</linearGradient>
</defs>
</svg>
