<svg width="20" height="20" viewBox="0 0 20 20" fill="none" xmlns="http://www.w3.org/2000/svg">
<path fill-rule="evenodd" clip-rule="evenodd" d="M0 0H5V5H0V0ZM0 7.5H5V12.5H0V7.5ZM0 15H5V20H0V15ZM7.5 0H12.5V5H7.5V0ZM7.5 7.5H12.5V12.5H7.5V7.5ZM7.5 15H12.5V20H7.5V15ZM15 0H20V5H15V0ZM15 7.5H20V12.5H15V7.5ZM15 15H20V20H15V15Z" fill="url(#paint0_linear_1_411)"/>
<path d="M0.5 0.5H4.5V4.5H0.5V0.5ZM0.5 8H4.5V12H0.5V8ZM0.5 15.5H4.5V19.5H0.5V15.5ZM8 0.5H12V4.5H8V0.5ZM8 8H12V12H8V8ZM8 15.5H12V19.5H8V15.5ZM15.5 0.5H19.5V4.5H15.5V0.5ZM15.5 8H19.5V12H15.5V8ZM15.5 15.5H19.5V19.5H15.5V15.5Z" stroke="#19C2EF" stroke-opacity="0.55"/>
<defs>
<linearGradient id="paint0_linear_1_411" x1="10" y1="0" x2="10" y2="20" gradientUnits="userSpaceOnUse">
<stop stop-color="#0974F8"/>
<stop offset="1" stop-color="#4FB2FE"/>
</linearGradient>
</defs>
</svg>
