<svg width="118" height="29" viewBox="0 0 118 29" fill="none" xmlns="http://www.w3.org/2000/svg">
<path d="M19 58H118V57H19V58Z" fill="url(#paint0_linear_1_429)"/>
<path d="M16 55H115V54H16V55Z" fill="url(#paint1_linear_1_429)"/>
<path d="M13 52H112V51H13V52Z" fill="url(#paint2_linear_1_429)"/>
<path d="M10 49H109V48H10V49Z" fill="url(#paint3_linear_1_429)"/>
<path d="M7 46H106V45H7V46Z" fill="url(#paint4_linear_1_429)"/>
<path d="M4 43H103V42H4V43Z" fill="url(#paint5_linear_1_429)"/>
<path d="M1 40H100V39H1V40Z" fill="url(#paint6_linear_1_429)"/>
<path d="M-2 37H97V36H-2V37Z" fill="url(#paint7_linear_1_429)"/>
<path d="M-5 34H94V33H-5V34Z" fill="url(#paint8_linear_1_429)"/>
<path d="M-8 31H91V30H-8V31Z" fill="url(#paint9_linear_1_429)"/>
<path d="M-11 28H88V27H-11V28Z" fill="url(#paint10_linear_1_429)"/>
<path d="M-14 25H85V24H-14V25Z" fill="url(#paint11_linear_1_429)"/>
<path d="M-17 22H82V21H-17V22Z" fill="url(#paint12_linear_1_429)"/>
<path d="M-20 19H79V18H-20V19Z" fill="url(#paint13_linear_1_429)"/>
<path d="M-23 16H76V15H-23V16Z" fill="url(#paint14_linear_1_429)"/>
<path d="M-26 13H73V12H-26V13Z" fill="url(#paint15_linear_1_429)"/>
<path d="M-29 10H70V9H-29V10Z" fill="url(#paint16_linear_1_429)"/>
<path d="M-32 7H67V6H-32V7Z" fill="url(#paint17_linear_1_429)"/>
<path d="M-35 4H64V3H-35V4Z" fill="url(#paint18_linear_1_429)"/>
<path d="M-38 1H61V0H-38V1Z" fill="url(#paint19_linear_1_429)"/>
<defs>
<linearGradient id="paint0_linear_1_429" x1="57" y1="6.25001" x2="-16.8385" y2="80.0885" gradientUnits="userSpaceOnUse">
<stop stop-color="#FD9D17" stop-opacity="0"/>
<stop offset="1" stop-color="#FD9D17"/>
</linearGradient>
<linearGradient id="paint1_linear_1_429" x1="57" y1="6.25001" x2="-16.8385" y2="80.0885" gradientUnits="userSpaceOnUse">
<stop stop-color="#FD9D17" stop-opacity="0"/>
<stop offset="1" stop-color="#FD9D17"/>
</linearGradient>
<linearGradient id="paint2_linear_1_429" x1="57" y1="6.25001" x2="-16.8385" y2="80.0885" gradientUnits="userSpaceOnUse">
<stop stop-color="#FD9D17" stop-opacity="0"/>
<stop offset="1" stop-color="#FD9D17"/>
</linearGradient>
<linearGradient id="paint3_linear_1_429" x1="57" y1="6.25001" x2="-16.8385" y2="80.0885" gradientUnits="userSpaceOnUse">
<stop stop-color="#FD9D17" stop-opacity="0"/>
<stop offset="1" stop-color="#FD9D17"/>
</linearGradient>
<linearGradient id="paint4_linear_1_429" x1="57" y1="6.25001" x2="-16.8385" y2="80.0885" gradientUnits="userSpaceOnUse">
<stop stop-color="#FD9D17" stop-opacity="0"/>
<stop offset="1" stop-color="#FD9D17"/>
</linearGradient>
<linearGradient id="paint5_linear_1_429" x1="57" y1="6.25001" x2="-16.8385" y2="80.0885" gradientUnits="userSpaceOnUse">
<stop stop-color="#FD9D17" stop-opacity="0"/>
<stop offset="1" stop-color="#FD9D17"/>
</linearGradient>
<linearGradient id="paint6_linear_1_429" x1="57" y1="6.25001" x2="-16.8385" y2="80.0885" gradientUnits="userSpaceOnUse">
<stop stop-color="#FD9D17" stop-opacity="0"/>
<stop offset="1" stop-color="#FD9D17"/>
</linearGradient>
<linearGradient id="paint7_linear_1_429" x1="57" y1="6.25001" x2="-16.8385" y2="80.0885" gradientUnits="userSpaceOnUse">
<stop stop-color="#FD9D17" stop-opacity="0"/>
<stop offset="1" stop-color="#FD9D17"/>
</linearGradient>
<linearGradient id="paint8_linear_1_429" x1="57" y1="6.25001" x2="-16.8385" y2="80.0885" gradientUnits="userSpaceOnUse">
<stop stop-color="#FD9D17" stop-opacity="0"/>
<stop offset="1" stop-color="#FD9D17"/>
</linearGradient>
<linearGradient id="paint9_linear_1_429" x1="57" y1="6.25001" x2="-16.8385" y2="80.0885" gradientUnits="userSpaceOnUse">
<stop stop-color="#FD9D17" stop-opacity="0"/>
<stop offset="1" stop-color="#FD9D17"/>
</linearGradient>
<linearGradient id="paint10_linear_1_429" x1="57" y1="6.25001" x2="-16.8385" y2="80.0885" gradientUnits="userSpaceOnUse">
<stop stop-color="#FD9D17" stop-opacity="0"/>
<stop offset="1" stop-color="#FD9D17"/>
</linearGradient>
<linearGradient id="paint11_linear_1_429" x1="57" y1="6.25001" x2="-16.8385" y2="80.0885" gradientUnits="userSpaceOnUse">
<stop stop-color="#FD9D17" stop-opacity="0"/>
<stop offset="1" stop-color="#FD9D17"/>
</linearGradient>
<linearGradient id="paint12_linear_1_429" x1="57" y1="6.25001" x2="-16.8385" y2="80.0885" gradientUnits="userSpaceOnUse">
<stop stop-color="#FD9D17" stop-opacity="0"/>
<stop offset="1" stop-color="#FD9D17"/>
</linearGradient>
<linearGradient id="paint13_linear_1_429" x1="57" y1="6.25001" x2="-16.8385" y2="80.0885" gradientUnits="userSpaceOnUse">
<stop stop-color="#FD9D17" stop-opacity="0"/>
<stop offset="1" stop-color="#FD9D17"/>
</linearGradient>
<linearGradient id="paint14_linear_1_429" x1="57" y1="6.25001" x2="-16.8385" y2="80.0885" gradientUnits="userSpaceOnUse">
<stop stop-color="#FD9D17" stop-opacity="0"/>
<stop offset="1" stop-color="#FD9D17"/>
</linearGradient>
<linearGradient id="paint15_linear_1_429" x1="57" y1="6.25001" x2="-16.8385" y2="80.0885" gradientUnits="userSpaceOnUse">
<stop stop-color="#FD9D17" stop-opacity="0"/>
<stop offset="1" stop-color="#FD9D17"/>
</linearGradient>
<linearGradient id="paint16_linear_1_429" x1="57" y1="6.25001" x2="-16.8385" y2="80.0885" gradientUnits="userSpaceOnUse">
<stop stop-color="#FD9D17" stop-opacity="0"/>
<stop offset="1" stop-color="#FD9D17"/>
</linearGradient>
<linearGradient id="paint17_linear_1_429" x1="57" y1="6.25001" x2="-16.8385" y2="80.0885" gradientUnits="userSpaceOnUse">
<stop stop-color="#FD9D17" stop-opacity="0"/>
<stop offset="1" stop-color="#FD9D17"/>
</linearGradient>
<linearGradient id="paint18_linear_1_429" x1="57" y1="6.25001" x2="-16.8385" y2="80.0885" gradientUnits="userSpaceOnUse">
<stop stop-color="#FD9D17" stop-opacity="0"/>
<stop offset="1" stop-color="#FD9D17"/>
</linearGradient>
<linearGradient id="paint19_linear_1_429" x1="57" y1="6.25001" x2="-16.8385" y2="80.0885" gradientUnits="userSpaceOnUse">
<stop stop-color="#FD9D17" stop-opacity="0"/>
<stop offset="1" stop-color="#FD9D17"/>
</linearGradient>
</defs>
</svg>
