<svg width="244" height="92" viewBox="0 0 244 92" fill="none" xmlns="http://www.w3.org/2000/svg">
<g filter="url(#filter0_di_1_414)">
<path d="M16.8542 1.16967L11.1735 6.84281C10.4222 7.59311 10 8.61134 10 9.67313V62.3269C10 63.3887 10.4222 64.4069 11.1735 65.1572L16.8542 70.8303C17.6042 71.5793 18.6208 72 19.6808 72H67.3766C68.4365 72 69.4531 71.5793 70.2031 70.8303L72.6759 68.3608C73.4259 67.6119 74.4425 67.1912 75.5024 67.1912H168.498C169.558 67.1912 170.574 67.6119 171.324 68.3608L173.797 70.8303C174.547 71.5793 175.564 72 176.623 72H224.319C225.379 72 226.396 71.5793 227.146 70.8303L232.827 65.1572C233.578 64.4069 234 63.3887 234 62.3269V9.67313C234 8.61134 233.578 7.59311 232.827 6.84281L227.146 1.16967C226.396 0.420689 225.379 0 224.319 0H189.74C188.54 0 187.404 0.538537 186.644 1.46712L177.417 12.7456C176.657 13.6742 175.521 14.2127 174.321 14.2127H69.679C68.4792 14.2127 67.3428 13.6742 66.5831 12.7456L57.3557 1.46713C56.596 0.538538 55.4596 0 54.2598 0H19.6808C18.6208 0 17.6042 0.42069 16.8542 1.16967Z" fill="url(#paint0_linear_1_414)" shape-rendering="crispEdges"/>
<path d="M11.5268 7.1966L17.2075 1.52346C17.8638 0.868103 18.7533 0.5 19.6808 0.5H54.2598C55.3096 0.5 56.304 0.971221 56.9687 1.78373L66.1961 13.0622C67.0508 14.1069 68.3293 14.7127 69.679 14.7127H174.321C175.671 14.7127 176.949 14.1069 177.804 13.0622L187.031 1.78373C187.696 0.971221 188.69 0.5 189.74 0.5H224.319C225.247 0.5 226.136 0.868103 226.792 1.52346L232.473 7.1966C233.131 7.85311 233.5 8.74406 233.5 9.67313V62.3269C233.5 63.2559 233.131 64.1469 232.473 64.8034L226.792 70.4765C226.136 71.1319 225.247 71.5 224.319 71.5H176.623C175.696 71.5 174.806 71.1319 174.15 70.4765L171.677 68.0071C170.834 67.1645 169.69 66.6912 168.498 66.6912H75.5024C74.31 66.6912 73.1663 67.1645 72.3226 68.0071L69.8498 70.4765C69.1935 71.1319 68.304 71.5 67.3766 71.5H19.6808C18.7533 71.5 17.8638 71.1319 17.2075 70.4765L11.5268 64.8034C10.8694 64.1469 10.5 63.2559 10.5 62.3269V9.67313C10.5 8.74406 10.8694 7.85311 11.5268 7.1966Z" stroke="#19C2EF" stroke-opacity="0.42" shape-rendering="crispEdges"/>
</g>
<defs>
<filter id="filter0_di_1_414" x="0" y="0" width="244" height="92" filterUnits="userSpaceOnUse" color-interpolation-filters="sRGB">
<feFlood flood-opacity="0" result="BackgroundImageFix"/>
<feColorMatrix in="SourceAlpha" type="matrix" values="0 0 0 0 0 0 0 0 0 0 0 0 0 0 0 0 0 0 127 0" result="hardAlpha"/>
<feOffset dy="10"/>
<feGaussianBlur stdDeviation="5"/>
<feComposite in2="hardAlpha" operator="out"/>
<feColorMatrix type="matrix" values="0 0 0 0 0 0 0 0 0 0 0 0 0 0 0 0 0 0 0.1 0"/>
<feBlend mode="normal" in2="BackgroundImageFix" result="effect1_dropShadow_1_414"/>
<feBlend mode="normal" in="SourceGraphic" in2="effect1_dropShadow_1_414" result="shape"/>
<feColorMatrix in="SourceAlpha" type="matrix" values="0 0 0 0 0 0 0 0 0 0 0 0 0 0 0 0 0 0 127 0" result="hardAlpha"/>
<feOffset/>
<feGaussianBlur stdDeviation="7.5"/>
<feComposite in2="hardAlpha" operator="arithmetic" k2="-1" k3="1"/>
<feColorMatrix type="matrix" values="0 0 0 0 0.0980392 0 0 0 0 0.760784 0 0 0 0 0.937255 0 0 0 0.9 0"/>
<feBlend mode="normal" in2="shape" result="effect2_innerShadow_1_414"/>
</filter>
<linearGradient id="paint0_linear_1_414" x1="124.353" y1="0.284966" x2="124.353" y2="82" gradientUnits="userSpaceOnUse">
<stop stop-color="#076CE9" stop-opacity="0.6"/>
<stop offset="1" stop-color="#0E0B26" stop-opacity="0.51"/>
</linearGradient>
</defs>
</svg>
