<svg width="178" height="69" viewBox="0 0 178 69" fill="none" xmlns="http://www.w3.org/2000/svg">
<g filter="url(#filter0_di_1_426)">
<path d="M153.604 20H24.6819C21.3655 20 19.4896 23.8036 21.5083 26.4348L37.2635 46.9705C38.0205 47.9572 39.1934 48.5357 40.437 48.5357H137.849C139.092 48.5357 140.265 47.9572 141.022 46.9705L156.777 26.4348C158.796 23.8036 156.92 20 153.604 20Z" fill="#FD9D17" fill-opacity="0.4" shape-rendering="crispEdges"/>
<path d="M24.6819 20.5H153.604C156.506 20.5 158.147 23.8282 156.381 26.1305L140.626 46.6662C139.963 47.5296 138.937 48.0357 137.849 48.0357H40.437C39.3488 48.0357 38.3225 47.5296 37.6602 46.6662L21.905 26.1305C20.1386 23.8282 21.7801 20.5 24.6819 20.5Z" stroke="#FD9D17" stroke-opacity="0.9" shape-rendering="crispEdges"/>
</g>
<defs>
<filter id="filter0_di_1_426" x="0.674515" y="0" width="176.937" height="68.5357" filterUnits="userSpaceOnUse" color-interpolation-filters="sRGB">
<feFlood flood-opacity="0" result="BackgroundImageFix"/>
<feColorMatrix in="SourceAlpha" type="matrix" values="0 0 0 0 0 0 0 0 0 0 0 0 0 0 0 0 0 0 127 0" result="hardAlpha"/>
<feOffset/>
<feGaussianBlur stdDeviation="10"/>
<feComposite in2="hardAlpha" operator="out"/>
<feColorMatrix type="matrix" values="0 0 0 0 0.992157 0 0 0 0 0.615686 0 0 0 0 0.0901961 0 0 0 0.5 0"/>
<feBlend mode="normal" in2="BackgroundImageFix" result="effect1_dropShadow_1_426"/>
<feBlend mode="normal" in="SourceGraphic" in2="effect1_dropShadow_1_426" result="shape"/>
<feColorMatrix in="SourceAlpha" type="matrix" values="0 0 0 0 0 0 0 0 0 0 0 0 0 0 0 0 0 0 127 0" result="hardAlpha"/>
<feOffset/>
<feGaussianBlur stdDeviation="4"/>
<feComposite in2="hardAlpha" operator="arithmetic" k2="-1" k3="1"/>
<feColorMatrix type="matrix" values="0 0 0 0 0.992157 0 0 0 0 0.615686 0 0 0 0 0.0901961 0 0 0 1 0"/>
<feBlend mode="normal" in2="shape" result="effect2_innerShadow_1_426"/>
</filter>
</defs>
</svg>
