<svg width="120" height="120" viewBox="0 0 120 120" fill="none" xmlns="http://www.w3.org/2000/svg">
<path d="M120 60C120.007 66.5552 118.938 73.0672 116.836 79.2761L111.999 77.6362C109.281 85.5889 104.781 92.8154 98.8446 98.7642C92.9077 104.713 85.6902 109.227 77.743 111.961L79.3936 116.796C66.8176 121.068 53.1829 121.068 40.6069 116.796L42.2571 111.961C34.31 109.227 27.0927 104.713 21.1559 98.7644C15.2191 92.8158 10.7199 85.5894 8.00161 77.6369L3.16454 79.2769C-1.05485 66.772 -1.05485 53.228 3.16454 40.7231L8.00161 42.363C10.7259 34.3922 15.2392 27.1511 21.1955 21.1948C27.1519 15.2385 34.393 10.7252 42.3638 8.00087L40.7241 3.16405C53.2288 -1.05477 66.7722 -1.05468 79.2769 3.16429L77.6372 8.00137C85.608 10.7258 92.8491 15.2391 98.8054 21.1955C104.762 27.1518 109.275 34.393 111.999 42.3638L116.836 40.7239C118.938 46.9328 120.007 53.4448 120 60ZM60 7.04649C49.5268 7.04651 39.2888 10.1522 30.5807 15.9708C21.8726 21.7894 15.0854 30.0596 11.0775 39.7355C7.06964 49.4115 6.021 60.0587 8.06422 70.3306C10.1074 80.6025 15.1508 90.0379 22.5564 97.4436C29.9621 104.849 39.3975 109.893 49.6694 111.936C59.9413 113.979 70.5885 112.93 80.2645 108.922C89.9404 104.915 98.2106 98.1274 104.029 89.4193C109.848 80.7112 112.953 70.4732 112.954 60C112.938 45.9607 107.354 32.501 97.4263 22.5737C87.499 12.6464 74.0393 7.06231 60 7.04649Z" fill="url(#paint0_linear_1_615)"/>
<path d="M106.817 60.0006L106.818 60.5H107.317H110.716C110.571 73.7661 105.238 86.4566 95.8472 95.8472C86.4566 105.238 73.7661 110.571 60.5 110.716V107.317V106.818L60.0006 106.817C47.5881 106.803 35.6879 101.866 26.911 93.089C18.134 84.312 13.1969 72.4119 13.1829 59.9994L13.1824 59.5H12.6829H9.28352C9.42913 46.2338 14.7623 33.5434 24.1528 24.1528C33.5434 14.7623 46.2338 9.42913 59.5 9.28352V12.6829V13.1824L59.9994 13.1829C72.4119 13.1969 84.312 18.134 93.089 26.911C101.866 35.688 106.803 47.5881 106.817 60.0006ZM14.1341 60L14.1341 60.0006C14.1479 72.1606 18.9845 83.8186 27.583 92.417C36.1814 101.015 47.8394 105.852 59.9994 105.866H60C69.0714 105.866 77.9391 103.176 85.4817 98.1361C93.0243 93.0963 98.903 85.933 102.375 77.5521C105.846 69.1712 106.754 59.9491 104.985 51.052C103.215 42.1549 98.8465 33.9824 92.4321 27.5679C86.0176 21.1535 77.8451 16.7852 68.948 15.0154C60.0509 13.2457 50.8288 14.154 42.4479 17.6255C34.067 21.097 26.9037 26.9757 21.8639 34.5183C16.8241 42.0609 14.1341 50.9286 14.1341 60Z" stroke="#19C2EF" stroke-opacity="0.4"/>
<defs>
<linearGradient id="paint0_linear_1_615" x1="60" y1="120" x2="60" y2="0" gradientUnits="userSpaceOnUse">
<stop stop-color="#0974F8"/>
<stop offset="1" stop-color="#4FB2FE"/>
</linearGradient>
</defs>
</svg>
